<svg width="120" height="28" viewBox="0 0 120 28" fill="none" xmlns="http://www.w3.org/2000/svg">
<path d="M41.3599 1.34984V2.05984C39.7399 2.15984 38.9399 2.86984 38.1799 4.83984L29.0899 27.4198H28.3799L21.3599 10.0898L14.3399 27.4198H13.6299L4.48991 4.82984C3.72991 3.05984 2.86991 2.19984 1.15991 2.04984V1.33984H11.6699V2.04984C9.44991 2.09984 8.38991 3.15984 9.03991 4.82984L15.5099 21.2498L20.5599 8.11984L19.2499 4.83984C18.5399 3.01984 17.7299 2.20984 15.9199 2.05984V1.34984H26.4799V2.05984C24.2099 2.10984 23.1499 3.16984 23.7999 4.83984L30.2699 21.2598L36.6299 4.83984C37.2399 3.21984 36.3299 2.15984 34.2599 2.05984V1.34984H41.3799H41.3599Z" fill="black"/>
<path d="M41.75 14.5298C41.75 6.29984 46.7 0.589844 53.82 0.589844C60.94 0.589844 65.44 5.83984 65.44 13.4698C65.44 21.6998 60.54 27.3598 53.37 27.3598C46.2 27.3598 41.75 22.1098 41.75 14.5298ZM61 15.3398C61 9.77984 58.78 1.99984 53.02 1.99984C48.88 1.99984 46.25 6.33984 46.25 12.5098C46.25 18.1698 48.42 25.9498 54.23 25.9498C58.42 25.9498 61 21.5598 61 15.3398Z" fill="black"/>
<path d="M94.97 25.9501V26.6601H84.06V25.9501C85.93 25.6001 87.44 25.1401 87.44 22.9201V8.57008C87.44 5.44008 85.67 3.52008 82.79 3.52008C80.21 3.52008 78.19 4.68008 75.57 7.66008V22.9201C75.57 25.1401 77.09 25.6001 78.9 25.9501V26.6601H67.99V25.9501C69.86 25.6001 71.37 25.1401 71.37 22.9201V5.99008C71.37 4.27008 70.56 3.46008 68.74 3.36008H67.53V2.65008L74.85 0.580078H75.56V6.44008C78.34 2.80008 80.97 0.580078 84.55 0.580078C89.05 0.580078 91.62 3.41008 91.62 8.31008V22.9101C91.62 25.1301 93.14 25.5901 94.95 25.9401L94.97 25.9501Z" fill="black"/>
<path d="M118.13 19.4798L118.69 19.7298C117.53 24.0198 113.79 27.3598 108.59 27.3598C101.37 27.3598 97.02 21.7498 97.02 14.5298C97.02 6.24984 101.87 0.589844 109.04 0.589844C115.2 0.589844 118.64 5.18984 118.69 11.6498H101.36C101.31 11.9498 101.31 12.3098 101.31 12.6098C101.06 19.4798 104.95 23.7698 110.76 23.7698C114.35 23.7698 116.72 21.7498 118.14 19.4798H118.13ZM101.51 10.2398H114.09C113.99 6.09984 111.87 2.00984 108.28 2.00984C104.69 2.00984 102.22 5.49984 101.51 10.2398Z" fill="black"/>
</svg>
