<svg width="24" height="24" viewBox="0 0 24 24" fill="none" xmlns="http://www.w3.org/2000/svg">
<path d="M12 9.5C13.7949 9.5 15.25 8.04492 15.25 6.25C15.25 4.45507 13.7949 3 12 3C10.2051 3 8.75 4.45507 8.75 6.25C8.75 8.04492 10.2051 9.5 12 9.5Z" stroke="white" stroke-width="0.833333" stroke-linecap="round" stroke-linejoin="round"/>
<path d="M12 23.5C18.3513 23.5 23.5 18.3513 23.5 12C23.5 5.64872 18.3513 0.5 12 0.5C5.64872 0.5 0.5 5.64872 0.5 12C0.5 18.3513 5.64872 23.5 12 23.5Z" stroke="white" stroke-width="0.833333" stroke-linecap="round" stroke-linejoin="round"/>
<path d="M14.045 21L14.5 18.5H16.5V15.5C16.5 13.0147 14.4853 11 12 11C9.51472 11 7.5 13.0147 7.5 15.5V18.5H9.5L9.955 21" stroke="white" stroke-width="0.833333" stroke-linecap="round" stroke-linejoin="round"/>
</svg>
