<svg width="24" height="24" viewBox="0 0 24 24" fill="none" xmlns="http://www.w3.org/2000/svg">
<path d="M0.5 23.5H23.5" stroke="white" stroke-width="0.833333" stroke-linecap="round" stroke-linejoin="round"/>
<path d="M21.5 3.5H2.5V23.5H21.5V3.5Z" stroke="white" stroke-width="0.833333" stroke-linecap="round" stroke-linejoin="round"/>
<path d="M0.5 3.5H23.5" stroke="white" stroke-width="0.833333" stroke-linecap="round" stroke-linejoin="round"/>
<path d="M20.5 3.5V1.5C20.5 0.947715 20.0523 0.5 19.5 0.5H4.5V0.5C3.94771 0.5 3.5 0.947715 3.5 1.5C3.5 1.5 3.5 1.5 3.5 1.5V3.5" stroke="white" stroke-width="0.833333" stroke-linecap="round" stroke-linejoin="round"/>
<path d="M10.5 23.5V20V20C10.5 19.1716 11.1716 18.5 12 18.5C12.8284 18.5 13.5 19.1716 13.5 20V20V23.5" stroke="white" stroke-width="0.833333" stroke-linecap="round" stroke-linejoin="round"/>
<path d="M5.5 19.5H8.5" stroke="white" stroke-width="0.833333" stroke-linecap="round" stroke-linejoin="round"/>
<path d="M15.5 19.5H18.5" stroke="white" stroke-width="0.833333" stroke-linecap="round" stroke-linejoin="round"/>
<path d="M5.5 15.5H9.5" stroke="white" stroke-width="0.833333" stroke-linecap="round" stroke-linejoin="round"/>
<path d="M14.5 15.5H18.5" stroke="white" stroke-width="0.833333" stroke-linecap="round" stroke-linejoin="round"/>
<path d="M5.5 11.5H9.5" stroke="white" stroke-width="0.833333" stroke-linecap="round" stroke-linejoin="round"/>
<path d="M14.5 11.5H18.5" stroke="white" stroke-width="0.833333" stroke-linecap="round" stroke-linejoin="round"/>
<path d="M5.5 7.5H9.5" stroke="white" stroke-width="0.833333" stroke-linecap="round" stroke-linejoin="round"/>
<path d="M14.5 7.5H18.5" stroke="white" stroke-width="0.833333" stroke-linecap="round" stroke-linejoin="round"/>
</svg>
