<svg width="24" height="24" viewBox="0 0 24 24" fill="none" xmlns="http://www.w3.org/2000/svg">
<path d="M12.2324 23.9991C11.8739 23.9413 11.5155 23.9008 11.1629 23.8257C6.74052 22.9121 3.86165 20.2872 2.49736 15.9913C2.19675 15.0373 2.08691 14.037 2.08691 13.0367C2.08691 12.8749 2.10426 12.713 2.11004 12.5395C2.46845 12.5395 2.79796 12.5395 3.14482 12.5395C3.06388 16.0028 4.35302 18.8359 7.09894 20.9463C9.14537 22.519 11.4924 23.1608 14.0533 22.8948C19.233 22.3571 23.0253 17.986 22.9443 12.9038C22.8981 10.1227 21.846 7.74058 19.8169 5.83257C17.7878 3.92456 15.3483 3.05151 12.5272 3.15558C12.5272 2.98212 12.5272 2.81445 12.5272 2.64678C12.5272 2.48488 12.5272 2.32299 12.5272 2.11485C12.7237 2.10328 12.9145 2.08594 13.0995 2.08594C17.9439 2.09172 22.2738 5.38737 23.586 10.0591C25.3203 16.2399 21.4355 22.5421 15.117 23.7968C14.695 23.8777 14.2672 23.9297 13.8452 23.9933C13.3076 23.9991 12.77 23.9991 12.2324 23.9991Z" fill="white"/>
<path d="M0 10.1525C0.098275 9.5859 0.150303 9.01349 0.294825 8.45844C1.43366 4.17409 4.15646 1.45084 8.44009 0.300258C9.41706 0.0342938 10.4229 -0.0293065 11.4577 0.0111664C11.4577 3.8214 11.4577 7.63163 11.4577 11.4823C7.64233 11.4823 3.82116 11.4823 0 11.4823C0 11.0371 0 10.5977 0 10.1525ZM1.11571 10.4185C4.22005 10.4185 7.31282 10.4185 10.4114 10.4185C10.4114 7.30785 10.4114 4.21456 10.4114 1.1155C5.38778 1.3699 1.36429 5.41719 1.11571 10.4185Z" fill="white"/>
</svg>
