<svg width="24" height="24" viewBox="0 0 24 24" fill="none" xmlns="http://www.w3.org/2000/svg">
<path d="M7.5 12C9.84721 12 11.75 10.0972 11.75 7.75C11.75 5.40279 9.84721 3.5 7.5 3.5C5.15279 3.5 3.25 5.40279 3.25 7.75C3.25 10.0972 5.15279 12 7.5 12Z" stroke="white" stroke-width="0.833333" stroke-linecap="round" stroke-linejoin="round"/>
<path d="M0.5 20.5V20.5C0.499999 16.634 3.63401 13.5 7.5 13.5C11.366 13.5 14.5 16.634 14.5 20.5V20.5L0.5 20.5Z" stroke="white" stroke-width="0.833333" stroke-linecap="round" stroke-linejoin="round"/>
<path d="M16.5 20.4999H23.5V20.5C23.5 17.4624 21.0376 15 18 15C17.1207 15 16.2542 15.2108 15.4731 15.6148" stroke="white" stroke-width="0.833333" stroke-linecap="round" stroke-linejoin="round"/>
<path d="M17.9438 13.5C19.7388 13.5 21.1938 12.0449 21.1938 10.25C21.1938 8.45507 19.7388 7 17.9438 7C16.1489 7 14.6938 8.45507 14.6938 10.25C14.6938 12.0449 16.1489 13.5 17.9438 13.5Z" stroke="white" stroke-width="0.833333" stroke-linecap="round" stroke-linejoin="round"/>
</svg>
