<svg width="24" height="44" viewBox="0 0 24 44" fill="none" xmlns="http://www.w3.org/2000/svg">
<path fill-rule="evenodd" clip-rule="evenodd" d="M20.4714 0C22.3522 0.00218828 23.8895 1.47381 23.9945 3.32947L24 3.5297V40.236C23.9989 42.1179 22.5262 43.6541 20.6716 43.7591L20.4714 43.7657H3.5297C1.64778 43.7635 0.111602 42.2919 0.00656437 40.4362L0 40.236V3.5297C0.00218828 1.64778 1.47381 0.111603 3.32947 0.0065649L3.5297 0H20.4714ZM5.77379 1.41144H3.5297C2.41586 1.41254 1.50335 2.27253 1.41801 3.36449L1.41144 3.52861V40.2371C1.41254 41.3498 2.27253 42.2612 3.36449 42.3477L3.52861 42.3542H20.4714C21.5841 42.3531 22.4966 41.4931 22.5831 40.4012L22.5886 40.2371V3.52751C22.5875 2.41477 21.7286 1.50335 20.6366 1.41691L20.4714 1.41035H18.2262L17.6343 4.37219C17.5752 4.66651 17.3389 4.88644 17.0522 4.9313L16.9417 4.94005H7.0594C6.75961 4.94005 6.49811 4.75295 6.39635 4.47942L6.36681 4.37219L5.77488 1.41035L5.77379 1.41144ZM7.76512 39.5302C8.15464 39.5302 8.47085 39.8465 8.47085 40.236C8.47085 40.5905 8.20934 40.8837 7.86907 40.934L7.76512 40.9417H3.5297C3.13909 40.9417 2.82398 40.6266 2.82398 40.236C2.82398 39.8815 3.08439 39.5882 3.42576 39.5379L3.5297 39.5302H7.76403H7.76512ZM10.588 39.5302C10.9786 39.5302 11.2948 39.8465 11.2948 40.236C11.2948 40.5905 11.0322 40.8837 10.693 40.934L10.588 40.9417H9.88229C9.49277 40.9417 9.17657 40.6266 9.17657 40.236C9.17657 39.8815 9.43807 39.5882 9.77834 39.5379L9.88229 39.5302H10.588ZM16.7863 1.41144H7.21368L7.6382 3.5297H16.3629L16.7863 1.41144Z" fill="white"/>
</svg>
