<svg width="24" height="28" viewBox="0 0 24 28" fill="none" xmlns="http://www.w3.org/2000/svg">
<path d="M12.3429 0C9.98853 0 8.05114 1.87882 8.05114 4.19805C8.05114 5.2382 8.4494 6.04173 9.08191 6.93429C9.5973 7.66285 9.56919 8.05642 9.51297 8.17121C9.45674 8.286 9.2459 8.43359 8.68835 8.39611C7.23121 8.29772 2.55994 7.7589 2.55994 7.7589V7.77764C1.99536 7.70034 1.43078 7.94163 1.1356 8.33988C0.849794 8.72642 0.742032 9.1809 0.685808 9.65178V9.68926C0.683465 9.70331 0.669409 9.71268 0.667066 9.72674H0.685808C0.678779 9.75251 0.425772 10.9192 0.048603 15.8739C0.043918 15.9512 0.0368898 15.8903 0.0298617 15.9676H0.048603C0.0181485 16.1995 0.043918 16.408 0.048603 16.4361C0.123568 16.818 0.334408 17.1975 0.685808 17.3732C1.03721 17.5489 1.39329 17.502 1.69784 17.4107C2.30927 17.228 2.88557 16.8203 3.47826 16.3986C4.17872 15.902 4.83701 15.5928 5.59603 15.5928C7.31789 15.5928 8.68835 16.9351 8.68835 18.5914C8.68835 20.2476 7.31789 21.59 5.59603 21.59C4.74096 21.59 4.25603 21.3698 3.44078 20.7279C2.9863 20.3718 2.45452 19.9853 1.88525 19.7721C1.59945 19.6667 1.2949 19.6034 0.948186 19.6784C0.601472 19.7533 0.266471 20.0391 0.123568 20.3905C-0.0240197 20.7513 -0.0169916 21.0043 0.0298617 21.3089C0.0322042 21.3393 0.0275192 21.3159 0.0298617 21.3464C0.383604 25.0173 0.561647 25.3757 0.685808 25.9192C0.774829 26.3081 0.93413 26.704 1.22931 27.025C1.52448 27.3459 1.99067 27.5872 2.50371 27.5872H21.7136C22.3812 27.5872 22.9856 27.367 23.4003 26.95C23.8149 26.533 24 25.9544 24 25.3383V9.82045C24 9.24415 23.7868 8.75219 23.4565 8.41485C23.1262 8.07751 22.7186 7.89243 22.332 7.77764C22.2594 7.75656 22.1821 7.75187 22.1071 7.7589C22.1071 7.7589 17.5928 8.20635 15.96 8.39611C15.4844 8.44999 15.3204 8.34457 15.2478 8.18995C15.1752 8.03534 15.1447 7.59726 15.5852 6.8968C15.9178 6.36736 16.1732 5.98082 16.3535 5.56617C16.5339 5.15152 16.6159 4.71578 16.6159 4.19805C16.6159 1.87882 14.6973 0 12.3429 0ZM12.3429 1.19944C14.0648 1.19944 15.4165 2.54179 15.4165 4.19805C15.4165 4.59631 15.3696 4.81886 15.2478 5.09764C15.126 5.37641 14.9081 5.72547 14.5731 6.2596C14.0109 7.1545 13.8328 8.00254 14.1608 8.69597C14.4888 9.3894 15.2923 9.68692 16.0912 9.59555C17.642 9.41517 21.833 9.00052 22.0696 8.97709C22.3039 9.05674 22.5101 9.13405 22.6131 9.23947C22.7303 9.35894 22.8006 9.49013 22.8006 9.82045V25.3383C22.8006 25.7154 22.6951 25.9473 22.5382 26.1066C22.3812 26.2659 22.1423 26.3878 21.7136 26.3878H2.50371C2.33739 26.3878 2.24368 26.3456 2.12889 26.2191C2.0141 26.0926 1.89931 25.8771 1.84777 25.6569C1.69315 24.9869 1.58773 24.9259 1.22931 21.1964C1.22462 21.1847 1.21759 21.1707 1.21056 21.1589C1.19885 21.0933 1.25976 20.7654 1.22931 20.8403C1.25039 20.8403 1.33004 20.8427 1.47294 20.8966C1.79857 21.0184 2.27882 21.3581 2.69113 21.6837C3.60945 22.4052 4.49264 22.7894 5.59603 22.7894C7.95041 22.7894 9.88779 20.9106 9.88779 18.5914C9.88779 16.2721 7.95041 14.3933 5.59603 14.3933C4.50201 14.3933 3.58134 14.8572 2.78483 15.4241C2.21557 15.8294 1.65567 16.1784 1.36049 16.2675C1.30427 16.2839 1.27616 16.2839 1.24805 16.2862C1.2457 16.2698 1.24102 16.2651 1.22931 16.2112C1.22228 16.1738 1.22931 16.1456 1.22931 16.1363C1.23165 16.1105 1.23165 16.0871 1.22931 16.0613C1.61819 10.8746 1.84777 9.9329 1.84777 9.9329C1.8548 9.90947 1.86183 9.8837 1.86651 9.85793C1.90868 9.46905 2.00473 9.17153 2.09141 9.05205C2.17808 8.93258 2.16169 8.92086 2.39127 8.95835C2.40298 8.95835 2.41704 8.95835 2.42875 8.95835C2.42875 8.95835 7.04145 9.49013 8.61338 9.59555C9.438 9.65178 10.2532 9.4058 10.6 8.69597C10.9467 7.98614 10.6937 7.14278 10.0565 6.24086C9.46845 5.41155 9.25059 4.96176 9.25059 4.19805C9.25059 2.54179 10.621 1.19944 12.3429 1.19944Z" fill="white"/>
</svg>
