<svg width="20" height="20" viewBox="0 0 20 20" fill="none" xmlns="http://www.w3.org/2000/svg">
<g clip-path="url(#clip0)">
<path d="M2.9165 17.9167C4.29722 17.9167 5.4165 16.7975 5.4165 15.4167C5.4165 14.036 4.29722 12.9167 2.9165 12.9167C1.53579 12.9167 0.416504 14.036 0.416504 15.4167C0.416504 16.7975 1.53579 17.9167 2.9165 17.9167Z" stroke="#5582A7" stroke-linecap="round" stroke-linejoin="round"/>
<path d="M5.4165 15.4166V4.58325C5.4165 3.92021 5.15311 3.28433 4.68427 2.81549C4.21543 2.34664 3.57955 2.08325 2.9165 2.08325C2.25346 2.08325 1.61758 2.34664 1.14874 2.81549C0.679896 3.28433 0.416504 3.92021 0.416504 4.58325V15.4166" stroke="#5582A7" stroke-linecap="round" stroke-linejoin="round"/>
<path d="M2.9165 17.9166H17.9165C18.3585 17.9166 18.7825 17.741 19.095 17.4284C19.4076 17.1159 19.5832 16.6919 19.5832 16.2499V6.24992C19.5832 5.80789 19.4076 5.38397 19.095 5.07141C18.7825 4.75885 18.3585 4.58325 17.9165 4.58325H7.70817" stroke="#5582A7" stroke-linecap="round" stroke-linejoin="round"/>
<path d="M2.9165 15.2083C2.97176 15.2083 3.02475 15.2302 3.06382 15.2693C3.10289 15.3083 3.12484 15.3613 3.12484 15.4166" stroke="#5582A7" stroke-linecap="round" stroke-linejoin="round"/>
<path d="M2.7085 15.4166C2.7085 15.3613 2.73045 15.3083 2.76952 15.2693C2.80859 15.2302 2.86158 15.2083 2.91683 15.2083" stroke="#5582A7" stroke-linecap="round" stroke-linejoin="round"/>
<path d="M2.91683 15.6251C2.86158 15.6251 2.80859 15.6031 2.76952 15.5641C2.73045 15.525 2.7085 15.472 2.7085 15.4167" stroke="#5582A7" stroke-linecap="round" stroke-linejoin="round"/>
<path d="M3.12484 15.4167C3.12484 15.472 3.10289 15.525 3.06382 15.5641C3.02475 15.6031 2.97176 15.6251 2.9165 15.6251" stroke="#5582A7" stroke-linecap="round" stroke-linejoin="round"/>
</g>
<defs>
<clipPath id="clip0">
<rect width="20" height="20" fill="white"/>
</clipPath>
</defs>
</svg>
