<svg width="24" height="24" viewBox="0 0 24 24" fill="none" xmlns="http://www.w3.org/2000/svg">
<path d="M17.5 23.501C20.8137 23.501 23.5 20.8147 23.5 17.501C23.5 14.1873 20.8137 11.501 17.5 11.501C14.1863 11.501 11.5 14.1873 11.5 17.501C11.5 20.8147 14.1863 23.501 17.5 23.501Z" stroke="white" stroke-width="0.833333" stroke-linecap="round" stroke-linejoin="round"/>
<path d="M19.5 17.501H17.5V14.501" stroke="white" stroke-width="0.833333" stroke-linecap="round" stroke-linejoin="round"/>
<path d="M9.5 18.5H1.5V18.5C0.947715 18.5 0.5 18.0523 0.5 17.5V17.5V3.5V3.5C0.5 2.94771 0.947715 2.5 1.5 2.5H19.5V2.5C20.0523 2.5 20.5 2.94771 20.5 3.5V10" stroke="white" stroke-width="0.833333" stroke-linecap="round" stroke-linejoin="round"/>
<path d="M5.5 0.5V5.5" stroke="white" stroke-width="0.833333" stroke-linecap="round" stroke-linejoin="round"/>
<path d="M15.5 0.5V5.5" stroke="white" stroke-width="0.833333" stroke-linecap="round" stroke-linejoin="round"/>
<path d="M0.5 7.5H20.5" stroke="white" stroke-width="0.833333" stroke-linecap="round" stroke-linejoin="round"/>
</svg>
