<svg width="30" height="30" viewBox="0 0 30 30" fill="none" xmlns="http://www.w3.org/2000/svg">
<rect width="30" height="30" rx="4" fill="#FAFAFC"/>
<path d="M7.49984 17.0827C8.65043 17.0827 9.58317 16.1499 9.58317 14.9993C9.58317 13.8488 8.65043 12.916 7.49984 12.916C6.34924 12.916 5.4165 13.8488 5.4165 14.9993C5.4165 16.1499 6.34924 17.0827 7.49984 17.0827Z" fill="#5582A7"/>
<path d="M14.9998 17.0827C16.1504 17.0827 17.0832 16.1499 17.0832 14.9993C17.0832 13.8488 16.1504 12.916 14.9998 12.916C13.8492 12.916 12.9165 13.8488 12.9165 14.9993C12.9165 16.1499 13.8492 17.0827 14.9998 17.0827Z" fill="#5582A7"/>
<path d="M22.4998 17.0827C23.6504 17.0827 24.5832 16.1499 24.5832 14.9993C24.5832 13.8488 23.6504 12.916 22.4998 12.916C21.3492 12.916 20.4165 13.8488 20.4165 14.9993C20.4165 16.1499 21.3492 17.0827 22.4998 17.0827Z" fill="#5582A7"/>
</svg>
