<svg width="38" height="38" viewBox="0 0 38 38" fill="none" xmlns="http://www.w3.org/2000/svg">
<g clip-path="url(#clip0)">
<path d="M18.7273 36.3182C28.5429 36.3182 36.5 28.3611 36.5 18.5455C36.5 8.72985 28.5429 0.772728 18.7273 0.772728C8.91171 0.772728 0.95459 8.72985 0.95459 18.5455C0.95459 28.3611 8.91171 36.3182 18.7273 36.3182Z" stroke="#5D686E" stroke-width="1.54545" stroke-linecap="round" stroke-linejoin="round"/>
<path d="M10.2272 15.0682C10.3036 15.0682 10.3783 15.0908 10.4418 15.1333C10.5054 15.1758 10.5549 15.2361 10.5841 15.3067C10.6134 15.3773 10.621 15.455 10.6061 15.5299C10.5912 15.6049 10.5544 15.6737 10.5004 15.7277C10.4464 15.7818 10.3775 15.8186 10.3026 15.8335C10.2276 15.8484 10.1499 15.8407 10.0793 15.8115C10.0087 15.7823 9.94839 15.7327 9.90593 15.6692C9.86348 15.6057 9.84082 15.531 9.84082 15.4545C9.84082 15.3521 9.88153 15.2538 9.95398 15.1813C10.0264 15.1089 10.1247 15.0682 10.2272 15.0682Z" stroke="#5D686E" stroke-width="1.54545" stroke-linecap="round" stroke-linejoin="round"/>
<path d="M27.2272 15.0682C27.1508 15.0682 27.0761 15.0908 27.0125 15.1333C26.949 15.1758 26.8995 15.2361 26.8702 15.3067C26.841 15.3773 26.8333 15.455 26.8482 15.5299C26.8632 15.6049 26.8999 15.6737 26.954 15.7277C27.008 15.7818 27.0769 15.8186 27.1518 15.8335C27.2268 15.8484 27.3044 15.8407 27.375 15.8115C27.4456 15.7823 27.506 15.7327 27.5484 15.6692C27.5909 15.6057 27.6135 15.531 27.6135 15.4545C27.6135 15.3521 27.5728 15.2538 27.5004 15.1813C27.4279 15.1089 27.3297 15.0682 27.2272 15.0682Z" stroke="#5D686E" stroke-width="1.54545" stroke-linecap="round" stroke-linejoin="round"/>
<path d="M11 26.2727C11 25.453 11.8141 24.6668 13.2633 24.0871C14.7124 23.5075 16.6779 23.1818 18.7273 23.1818C20.7767 23.1818 22.7421 23.5075 24.1913 24.0871C25.6404 24.6668 26.4545 25.453 26.4545 26.2727" stroke="#5D686E" stroke-width="1.54545" stroke-linecap="round" stroke-linejoin="round"/>
</g>
<defs>
<clipPath id="clip0">
<rect width="37.0909" height="37.0909" fill="white" transform="translate(0.181641)"/>
</clipPath>
</defs>
</svg>
