<svg width="38" height="38" viewBox="0 0 38 38" fill="none" xmlns="http://www.w3.org/2000/svg">
<g clip-path="url(#clip0)">
<path d="M14.6818 14.8487C14.354 14.3247 13.8984 13.8926 13.3577 13.593C12.817 13.2935 12.209 13.1363 11.5909 13.1363C10.9728 13.1363 10.3648 13.2935 9.82412 13.593C9.28343 13.8926 8.82778 14.3247 8.5 14.8487" stroke="#5D686E" stroke-width="1.54545" stroke-linecap="round" stroke-linejoin="round"/>
<path d="M22.4092 14.8487C22.737 14.3247 23.1926 13.8926 23.7333 13.593C24.274 13.2935 24.882 13.1363 25.5001 13.1363C26.1182 13.1363 26.7262 13.2935 27.2669 13.593C27.8076 13.8926 28.2632 14.3247 28.591 14.8487" stroke="#5D686E" stroke-width="1.54545" stroke-linecap="round" stroke-linejoin="round"/>
<path d="M9.27246 23.9545C10.0352 25.7852 11.3228 27.3491 12.973 28.4492C14.6231 29.5493 16.562 30.1364 18.5452 30.1364C20.5284 30.1364 22.4673 29.5493 24.1174 28.4492C25.7675 27.3491 27.0551 25.7852 27.8179 23.9545" stroke="#5D686E" stroke-width="1.54545" stroke-linecap="round" stroke-linejoin="round"/>
<path d="M18.5452 36.3182C28.3608 36.3182 36.3179 28.3611 36.3179 18.5455C36.3179 8.72985 28.3608 0.772728 18.5452 0.772728C8.72958 0.772728 0.772461 8.72985 0.772461 18.5455C0.772461 28.3611 8.72958 36.3182 18.5452 36.3182Z" stroke="#5D686E" stroke-width="1.54545" stroke-linecap="round" stroke-linejoin="round"/>
</g>
<defs>
<clipPath id="clip0">
<rect width="37.0909" height="37.0909" fill="white"/>
</clipPath>
</defs>
</svg>
