<svg width="16" height="18" viewBox="0 0 16 18" fill="none" xmlns="http://www.w3.org/2000/svg">
<path fill-rule="evenodd" clip-rule="evenodd" d="M1 16.506V4.001C1 3.20509 1.31618 2.44177 1.87897 1.87897C2.44177 1.31618 3.20509 1 4.001 1H12.005C12.8006 1.00027 13.5635 1.31642 14.126 1.87897C14.6886 2.44152 15.0047 3.20443 15.005 4V16.506C15.0049 16.5978 14.9796 16.6878 14.9318 16.7661C14.884 16.8445 14.8156 16.9081 14.734 16.9502C14.6524 16.9922 14.5608 17.011 14.4693 17.0044C14.3777 16.9979 14.2898 16.9662 14.215 16.913L8.295 12.683C8.21003 12.622 8.10808 12.5892 8.0035 12.5892C7.89892 12.5892 7.79697 12.622 7.712 12.683L1.792 16.913C1.71723 16.9668 1.62906 16.9989 1.5372 17.0057C1.44535 17.0126 1.35339 16.9939 1.27147 16.9518C1.18954 16.9097 1.12084 16.8458 1.07294 16.7672C1.02503 16.6885 0.999794 16.5981 1 16.506Z" fill="white" stroke="white" stroke-width="1.5" stroke-linecap="round" stroke-linejoin="round"/>
</svg>
