<svg width="20" height="24" viewBox="0 0 20 24" fill="none" xmlns="http://www.w3.org/2000/svg">
<path d="M17 3.646H18V3.646C18.5523 3.646 19 4.09371 19 4.646V22.5C19 23.0523 18.5523 23.5 18 23.5H2V23.5C1.44771 23.5 1 23.0523 1 22.5V22.5V4.646V4.646C1 4.09371 1.44771 3.646 2 3.646H3" stroke="white" stroke-width="0.833333" stroke-linecap="round" stroke-linejoin="round"/>
<path d="M12 2.5C12 1.39543 11.1046 0.5 10 0.5C8.89543 0.5 8 1.39543 8 2.5H5.5V2.5C5.22386 2.5 5 2.72386 5 3V5V5C5 5.27614 5.22386 5.5 5.5 5.5H14.5V5.5C14.7761 5.5 15 5.27614 15 5V3C15 2.72386 14.7761 2.5 14.5 2.5H12Z" stroke="white" stroke-width="0.833333" stroke-linecap="round" stroke-linejoin="round"/>
<path d="M14 13.5C14 15.7091 12.2091 17.5 10 17.5C7.79086 17.5 6 15.7091 6 13.5C6 11.2909 7.79086 9.5 10 9.5" stroke="white" stroke-width="0.833333" stroke-linecap="round" stroke-linejoin="round"/>
<path d="M14 10.5L10.354 14.146V14.146C10.159 14.3415 9.8424 14.3419 9.64689 14.1469C9.6466 14.1466 9.6463 14.1463 9.646 14.146L8.5 13" stroke="white" stroke-width="0.833333" stroke-linecap="round" stroke-linejoin="round"/>
</svg>
