<svg width="24" height="30" viewBox="0 0 24 30" fill="none" xmlns="http://www.w3.org/2000/svg">
<path d="M20.5556 4.84506H21.7778C22.4528 4.84506 23 5.39227 23 6.06729V27.8888C23 28.5639 22.4528 29.1111 21.7778 29.1111H2.22223C1.54721 29.1111 1 28.5639 1 27.8888V6.06729C1 5.39227 1.54721 4.84506 2.22223 4.84506H3.44445" stroke="white" stroke-linecap="round" stroke-linejoin="round"/>
<path d="M14.4444 3.44444C14.4444 2.09442 13.35 1 12 1C10.65 1 9.55561 2.09442 9.55561 3.44444H6.50002C6.16251 3.44444 5.8889 3.71805 5.8889 4.05556V6.50001C5.8889 6.83751 6.16251 7.11111 6.50002 7.11111H17.5C17.8376 7.11111 18.1112 6.83751 18.1112 6.50001V4.05556C18.1112 3.71805 17.8376 3.44444 17.5 3.44444H14.4444Z" stroke="white" stroke-linecap="round" stroke-linejoin="round"/>
<path d="M16.8889 16.8889C16.8889 19.589 14.7001 21.7779 12 21.7779C9.29997 21.7779 7.11113 19.589 7.11113 16.8889C7.11113 14.1889 9.29997 12.0001 12 12.0001" stroke="white" stroke-linecap="round" stroke-linejoin="round"/>
<path d="M16.8889 13.2222L12.4327 17.6784C12.1943 17.9174 11.8074 17.918 11.5684 17.6796C11.5681 17.6793 11.5677 17.6788 11.5674 17.6784L10.1667 16.2779" stroke="white" stroke-linecap="round" stroke-linejoin="round"/>
</svg>
