<svg width="57" height="14" viewBox="0 0 57 14" xmlns="http://www.w3.org/2000/svg">
    <path d="M54.65.848c.81.606 1.342 1.422 1.705 2.354.351.903.506 1.843.52 2.809 0 .048-.008.096-.015.18h-9.24c.012.738.087 1.443.262 2.137.264 1.047.69 2.012 1.459 2.792 1.054 1.07 2.347 1.428 3.81 1.222 1.12-.158 2.003-.756 2.763-1.56.15-.158.296-.324.428-.498.093-.123.175-.164.32-.082.164.092.065.204.03.292a5.499 5.499 0 0 1-1.324 2.018c-2.263 2.177-5.914 1.932-7.879-.517-.92-1.146-1.405-2.459-1.516-3.909-.133-1.746.093-3.44.927-5.006.9-1.693 2.306-2.717 4.21-3.008 1.273-.194 2.481-.017 3.54.776zM36.019 0v3.04c.354-.412.657-.785.983-1.139.579-.627 1.216-1.188 2.012-1.533 2.277-.989 4.759.282 5.25 2.699.092.455.134.927.137 1.39.013 2.29.03 4.58-.004 6.87-.018 1.18.489 1.581 1.535 1.802.095.02.191.041.288.049.149.011.154.108.156.22.002.132-.064.165-.182.165-1.761-.003-3.523-.003-5.284-.004-.031 0-.062-.014-.09-.02-.068-.32-.064-.322.22-.378.19-.038.381-.076.567-.13.809-.239 1.129-.665 1.13-1.503 0-2.282.01-4.563-.008-6.845a5.202 5.202 0 0 0-.185-1.358c-.266-.944-.92-1.515-1.891-1.704-1.452-.282-2.667.197-3.718 1.172-.278.258-.543.531-.8.811a.481.481 0 0 0-.113.299c-.006 2.588-.007 5.176-.002 7.765 0 .667.35 1.114 1.033 1.328.246.077.501.134.756.175.154.025.172.103.174.231.002.136-.067.156-.159.16h-5.235c-.11 0-.21.007-.213-.155-.003-.146.041-.202.194-.24.375-.093.755-.188 1.107-.341.39-.17.598-.508.645-.933a3.3 3.3 0 0 0 .017-.362c.001-2.773.002-5.547 0-8.32 0-.178-.008-.356-.025-.532-.07-.72-.553-1.172-1.284-1.204-.201-.008-.404 0-.614 0-.085-.267-.035-.4.226-.48.914-.28 1.819-.587 2.73-.874.194-.06.403-.077.647-.121zm13.597 1.387c-.762.497-1.237 1.204-1.545 2.039a6.502 6.502 0 0 0-.412 2.004h7.306c-.072-1.014-.227-1.985-.667-2.89-.204-.42-.473-.796-.846-1.086-.997-.773-2.721-.794-3.836-.067zM20.996.581c.026.197-.08.253-.243.28-.11.02-.217.059-.325.09-.544.155-.879.515-1.075 1.048-.5 1.361-1.02 2.716-1.535 4.072-.767 2.02-1.537 4.038-2.305 6.058-.209.55-.416 1.1-.62 1.652-.044.117-.071.218-.236.22-.163 0-.199-.094-.245-.212L10.56 4.024c-.006-.014-.017-.027-.043-.069-.034.073-.066.13-.089.189a12954.298 12954.298 0 0 0-3.655 9.658c-.042.112-.081.197-.23.197-.147 0-.213-.057-.264-.187-.54-1.39-1.085-2.778-1.631-4.165-.49-1.245-.987-2.487-1.478-3.732C2.65 4.603 2.114 3.3 1.628 1.975 1.387 1.316.898 1.052.29.894.202.874.087.846.042.78-.066.622.044.446.237.446 1.9.444 3.562.445 5.224.446c.054 0 .108.01.164.017.07.222.038.35-.22.397a5.443 5.443 0 0 0-.951.251c-.698.264-.84.623-.573 1.326.44 1.161.876 2.324 1.315 3.485.632 1.674 1.266 3.347 1.9 5.02.031.08.067.16.126.304.142-.38.264-.706.384-1.034.886-2.414 1.772-4.829 2.652-7.246a.587.587 0 0 0-.005-.338c-.053-.185-.157-.356-.206-.542-.192-.72-.725-1.024-1.384-1.19-.092-.024-.217-.067-.253-.139-.094-.19.003-.31.226-.31h4.914c.103 0 .232-.041.246.144.013.166-.064.219-.21.256-.402.105-.81.2-1.197.348-.423.163-.582.454-.453.887.188.632.426 1.25.659 1.868.888 2.362 1.782 4.722 2.675 7.082.02.057.05.11.098.21l.655-1.781a15194.524 15194.524 0 0 0 2.577-7.04 1.48 1.48 0 0 0 .042-.139c.178-.694.006-1.014-.679-1.217-.299-.089-.607-.147-.913-.21-.298-.062-.31-.076-.227-.409h.23c1.3 0 2.601-.001 3.902.003.103 0 .251-.07.278.132zM31.29 3.465c.458 1.057.65 2.168.647 3.653-.02 1.445-.423 3.109-1.507 4.551-.979 1.303-2.27 2.112-3.885 2.294-2.146.24-4.209-.682-5.369-2.634-.97-1.634-1.193-3.404-.974-5.257.14-1.183.495-2.297 1.138-3.304C22.244 1.35 23.482.383 25.142.09c2.536-.446 5.013.753 6.148 3.374zM24.254 1.31c-1.07.584-1.646 1.57-1.993 2.703-.464 1.518-.431 3.059-.108 4.598.232 1.105.607 2.156 1.313 3.052.912 1.157 2.095 1.642 3.54 1.335 1.031-.22 1.75-.892 2.272-1.787.663-1.139.88-2.392.894-3.693a10.06 10.06 0 0 0-.385-2.739c-.261-.947-.65-1.832-1.284-2.593-1.07-1.286-2.813-1.66-4.249-.876z" fill="#212121" fill-rule="evenodd"/>
</svg>
