<svg width="38" height="38" viewBox="0 0 38 38" fill="none" xmlns="http://www.w3.org/2000/svg">
<g clip-path="url(#clip0)">
<path d="M10.591 15.0682C10.6674 15.0682 10.7421 15.0908 10.8056 15.1333C10.8691 15.1758 10.9187 15.2361 10.9479 15.3067C10.9771 15.3773 10.9848 15.455 10.9699 15.5299C10.955 15.6049 10.9182 15.6737 10.8642 15.7277C10.8101 15.7818 10.7413 15.8186 10.6663 15.8335C10.5914 15.8484 10.5137 15.8407 10.4431 15.8115C10.3725 15.7823 10.3122 15.7327 10.2697 15.6692C10.2272 15.6057 10.2046 15.531 10.2046 15.4545C10.2046 15.3521 10.2453 15.2538 10.3178 15.1813C10.3902 15.1089 10.4885 15.0682 10.591 15.0682Z" stroke="#5D686E" stroke-width="1.54545" stroke-linecap="round" stroke-linejoin="round"/>
<path d="M27.591 15.0682C27.5145 15.0682 27.4398 15.0908 27.3763 15.1333C27.3128 15.1758 27.2632 15.2361 27.234 15.3067C27.2048 15.3773 27.1971 15.455 27.212 15.5299C27.2269 15.6049 27.2637 15.6737 27.3178 15.7277C27.3718 15.7818 27.4406 15.8186 27.5156 15.8335C27.5905 15.8484 27.6682 15.8407 27.7388 15.8115C27.8094 15.7823 27.8697 15.7327 27.9122 15.6692C27.9547 15.6057 27.9773 15.531 27.9773 15.4545C27.9773 15.3521 27.9366 15.2538 27.8642 15.1813C27.7917 15.1089 27.6934 15.0682 27.591 15.0682Z" stroke="#5D686E" stroke-width="1.54545" stroke-linecap="round" stroke-linejoin="round"/>
<path d="M9.81787 23.9545C10.5806 25.7852 11.8682 27.3491 13.5184 28.4492C15.1685 29.5493 17.1074 30.1364 19.0906 30.1364C21.0738 30.1364 23.0127 29.5493 24.6628 28.4492C26.313 27.3491 27.6005 25.7852 28.3633 23.9545" stroke="#5D686E" stroke-width="1.54545" stroke-linecap="round" stroke-linejoin="round"/>
<path d="M19.0906 36.3182C28.9062 36.3182 36.8633 28.3611 36.8633 18.5455C36.8633 8.72985 28.9062 0.772728 19.0906 0.772728C9.27499 0.772728 1.31787 8.72985 1.31787 18.5455C1.31787 28.3611 9.27499 36.3182 19.0906 36.3182Z" stroke="#5D686E" stroke-width="1.54545" stroke-linecap="round" stroke-linejoin="round"/>
</g>
<defs>
<clipPath id="clip0">
<rect width="37.0909" height="37.0909" fill="white" transform="translate(0.54541)"/>
</clipPath>
</defs>
</svg>
