<svg width="24" height="22" viewBox="0 0 24 22" fill="none" xmlns="http://www.w3.org/2000/svg">
<path d="M12 21.5002C12 21.5002 0.75 15.2002 0.75 7.5502C0.750229 6.19811 1.21873 4.88782 2.07586 3.84211C2.93299 2.7964 4.12583 2.07983 5.45159 1.81421C6.77734 1.5486 8.15417 1.75034 9.34799 2.38514C10.5418 3.01994 11.4789 4.04861 12 5.29627L12 5.29628C12.5211 4.04862 13.4582 3.01995 14.652 2.38515C15.8458 1.75034 17.2227 1.5486 18.5484 1.81421C19.8742 2.07983 21.067 2.7964 21.9241 3.84211C22.7813 4.88782 23.2498 6.1981 23.25 7.5502C23.25 15.2002 12 21.5002 12 21.5002Z" stroke="black" stroke-linecap="round" stroke-linejoin="round"/>
</svg>