<svg width="19.5" height="19.5" viewBox="0 0 19.5 19.5" xmlns="http://www.w3.org/2000/svg">
    <g fill="none" fill-rule="evenodd">
        <path d="m10.765 15.765-1.53 1.53a4.97 4.97 0 0 1-7.03 0h0a4.97 4.97 0 0 1 0-7.03L4.2 8.27a5 5 0 0 1 7.07 0" stroke="#323232" stroke-width="1.5" stroke-linecap="round" stroke-linejoin="round"/>
        <path d="m8.735 3.735 1.53-1.53a4.97 4.97 0 0 1 7.03 0h0a4.97 4.97 0 0 1 0 7.03L15.3 11.23a5 5 0 0 1-7.07 0" stroke="#323232" stroke-width="1.5" stroke-linecap="round" stroke-linejoin="round"/>
        <path d="M21.75-2.25v24h-24v-24z"/>
    </g>
</svg>
