<svg width="24" height="24" viewBox="0 0 24 24" xmlns="http://www.w3.org/2000/svg">
    <g fill="none" fill-rule="evenodd">
        <g stroke-linecap="round" stroke-linejoin="round" stroke="#FFF" stroke-width="1.5">
            <path d="m18.414 6.415-2.828-2.828a2 2 0 0 0-1.414-.586H7a2 2 0 0 0-2 2v14a2 2 0 0 0 2 2h10a2 2 0 0 0 2-2V7.83a2 2 0 0 0-.586-1.414h0z"/>
            <path d="M19 8.001h-4a1 1 0 0 1-1-1v-4M8 11.001h6M8 14.001h6M8 17.001h4.33"/>
        </g>
        <path d="M0 .001h24v24H0z"/>
    </g>
</svg>
