<svg width="19" height="18" viewBox="0 0 19 18" xmlns="http://www.w3.org/2000/svg">
    <g fill="none" fill-rule="evenodd">
        <path stroke="#323232" stroke-width="1.5" stroke-linecap="round" stroke-linejoin="round" d="M14.5 15.75H4M9.25 9l-3.3 2.475a3 3 0 0 0-1.2 2.4V15c0 .414.336.75.75.75H13a.75.75 0 0 0 .75-.75v-1.125a3 3 0 0 0-1.2-2.4L9.25 9M4 2.25h10.5M9.25 9l3.3-2.475a3 3 0 0 0 1.2-2.4V3a.75.75 0 0 0-.75-.75H5.5a.75.75 0 0 0-.75.75v1.125a3 3 0 0 0 1.2 2.4L9.25 9"/>
        <path d="M.25 0h18v18h-18z"/>
    </g>
</svg>
