<svg width="19" height="19" viewBox="0 0 19 19" xmlns="http://www.w3.org/2000/svg">
    <g fill="none" fill-rule="evenodd">
        <path d="M-.004-.004h18.008v18.008H-.004z"/>
        <path stroke="#323232" stroke-width="1.5" stroke-linecap="round" stroke-linejoin="round" d="M6 2.247v9.754M14.252 12.001v3.001M14.252 2.247a.75.75 0 0 1 .75.75v8.254a.75.75 0 0 1-.75.75H4.498a1.5 1.5 0 0 0-1.5 1.5h0a1.5 1.5 0 0 0 1.5 1.502M4.498 15.002H9M12.001 15.002h3.001"/>
        <path stroke="#212121" stroke-width="1.5" stroke-linecap="round" stroke-linejoin="round" d="M9 13.877h3.001v3.001l-1.5-.75-1.501.75zM2.998 13.502V3.748a1.5 1.5 0 0 1 1.5-1.5h9.754"/>
    </g>
</svg>
