<svg width="27" height="26" viewBox="0 0 27 26" xmlns="http://www.w3.org/2000/svg">
    <g stroke="#000" stroke-width="1.5" fill="none" fill-rule="evenodd" stroke-linecap="round" stroke-linejoin="round">
        <path d="M7.838 17.11h9.038c.591 0 1.079-.52 1.128-1.036.045-.467-.185-.919-.359-1.414-.173-.496-2.338-6.615-2.576-7.295-.196-.558-.62-.864-1.247-.864-2.714 0-5.428-.003-8.142.002a2.5 2.5 0 0 0-1.81.739c-.424.415-.67.915-.745 1.489-.035.266 2.076 9.43 2.292 9.744.369.537.899.838 1.527.982.141.033.292.037.438.037 4.61.001 16.985-.03 17.165 0"/>
        <path d="M17.295 14.778c-3.333-.077-6.474-.016-9.808-.034-.863-.005-2.145.835-2.656 1.533M24.544 19.391c.018-.243-.053-.465-.136-.692-.28-.763-.542-1.531-.811-2.297l-1.106-3.128c-.287-.812-.57-1.625-.86-2.436-.174-.482-.15-.45-.614-.45-.597.001-1.193.004-1.79-.001a88.265 88.265 0 0 0-.895 0c-.462.005-.924-.001-1.386.003-.215.002-.43.014-.632.102"/>
        <path d="M18.728 10.625c.274.756 2.899 8.411 2.899 8.411"/>
    </g>
</svg>
