<svg width="31" height="31" viewBox="0 0 31 31" xmlns="http://www.w3.org/2000/svg">
    <g fill="none" fill-rule="evenodd">
        <path d="M0 0h31v31H0z"/>
        <path d="M24.542 27.125H6.458a2.583 2.583 0 0 1-2.583-2.583V6.458a2.583 2.583 0 0 1 2.583-2.583h18.084a2.583 2.583 0 0 1 2.583 2.583v18.084a2.583 2.583 0 0 1-2.583 2.583zM11.625 9.042v2.583M11.625 15.5v6.458M19.375 9.042V15.5M19.375 19.375v2.583" stroke="#323232" stroke-width="1.95" stroke-linecap="round" stroke-linejoin="round"/>
        <path d="M12.917 15.5h-2.584a1.292 1.292 0 0 1-1.291-1.292v-1.291c0-.713.578-1.292 1.291-1.292h2.584c.713 0 1.291.579 1.291 1.292v1.291c0 .713-.578 1.292-1.291 1.292zM20.667 19.375h-2.584a1.292 1.292 0 0 1-1.291-1.292v-1.291c0-.713.578-1.292 1.291-1.292h2.584c.713 0 1.291.579 1.291 1.292v1.291c0 .713-.578 1.292-1.291 1.292z" stroke="#323232" stroke-width="1.95" stroke-linecap="round" stroke-linejoin="round"/>
    </g>
</svg>
