<svg width="28" height="20" viewBox="0 0 28 20" xmlns="http://www.w3.org/2000/svg">
    <g stroke="#FFF" stroke-width="1.5" fill="none" fill-rule="evenodd" stroke-linecap="round" stroke-linejoin="round">
        <path d="M25.22 3.475A12.948 12.948 0 0 1 26.972 10c0 2.536-.725 4.902-1.98 6.902M2.761 3.475A12.948 12.948 0 0 0 1.01 10c0 2.536.726 4.902 1.98 6.902M22.975 10h0c0 4.971-4.026 9-8.994 9h0c-4.967 0-8.993-4.029-8.993-9h0c0-4.971 4.026-9 8.993-9h0c4.968 0 8.994 4.029 8.994 9z"/>
        <path d="m12.923 7.058 3.88 2.296a.75.75 0 0 1 0 1.291l-3.88 2.296a.75.75 0 0 1-1.131-.646V7.704a.75.75 0 0 1 1.131-.646h0z"/>
    </g>
</svg>
