<svg width="25" height="24" viewBox="0 0 25 24" xmlns="http://www.w3.org/2000/svg">
    <g fill="none" fill-rule="evenodd">
        <path d="M.25 0h24v24h-24z"/>
        <path d="m3.745 13.465 1.195 1.564.258 1.947A2.411 2.411 0 0 0 7.27 19.05l1.952.261 1.563 1.194a2.411 2.411 0 0 0 2.929 0l1.564-1.195h-.002l1.948-.258a2.411 2.411 0 0 0 2.074-2.072l.26-1.952 1.195-1.563a2.412 2.412 0 0 0 0-2.929L19.56 8.971l-.258-1.947A2.411 2.411 0 0 0 17.23 4.95l-1.953-.26-1.563-1.194a2.411 2.411 0 0 0-2.929 0L9.221 4.69h.002l-1.948.259a2.411 2.411 0 0 0-2.074 2.072L4.94 8.973l-1.195 1.563a2.414 2.414 0 0 0 0 2.929h0z" stroke="#323232" stroke-width="1.5" stroke-linecap="round" stroke-linejoin="round"/>
        <path d="m11.051 15.409.83-.436a.796.796 0 0 1 .738 0l.83.436a.79.79 0 0 0 .835-.061l.31-.225a.795.795 0 0 0 .316-.775l-.159-.924a.793.793 0 0 1 .228-.702l.671-.654a.794.794 0 0 0 .201-.813l-.118-.364a.793.793 0 0 0-.64-.54l-.928-.135a.793.793 0 0 1-.597-.434l-.415-.841a.795.795 0 0 0-.712-.441h-.383a.791.791 0 0 0-.711.442l-.415.841a.793.793 0 0 1-.597.434l-.928.135a.793.793 0 0 0-.64.54l-.118.364a.792.792 0 0 0 .201.813l.671.654a.793.793 0 0 1 .228.702l-.159.924a.792.792 0 0 0 .316.775l.31.225c.244.176.568.2.835.06h0z" stroke="#323232" stroke-width="1.5" stroke-linecap="round" stroke-linejoin="round"/>
    </g>
</svg>
