<svg width="24" height="24" viewBox="0 0 24 24" fill="none" xmlns="http://www.w3.org/2000/svg">
<path d="M12 10.5C13.933 10.5 15.5 8.93299 15.5 7C15.5 5.067 13.933 3.5 12 3.5C10.067 3.5 8.5 5.067 8.5 7C8.5 8.93299 10.067 10.5 12 10.5Z" stroke="white" stroke-width="0.833333" stroke-linecap="round" stroke-linejoin="round"/>
<path d="M12 0.5V0.5C15.7861 0.500552 18.855 3.56993 18.855 7.356C18.855 10.571 13.913 18.541 12.421 20.873V20.873C12.272 21.1055 11.9628 21.1732 11.7303 21.0243C11.6695 20.9853 11.6179 20.9337 11.579 20.873C10.087 18.541 5.14502 10.573 5.14502 7.356V7.355C5.14502 3.56909 8.21411 0.500001 12 0.500001C12.0003 0.500001 12.0007 0.500001 12.001 0.500001L12 0.5Z" stroke="white" stroke-width="0.833333" stroke-linecap="round" stroke-linejoin="round"/>
<path d="M17 19.7002C20.848 20.0242 23.5 20.7092 23.5 21.5002C23.5 22.6052 18.352 23.5002 12 23.5002C5.648 23.5002 0.5 22.6052 0.5 21.5002C0.5 20.7102 3.135 20.0272 6.958 19.7002" stroke="white" stroke-width="0.833333" stroke-linecap="round" stroke-linejoin="round"/>
</svg>
