<svg width="223" height="171" viewBox="0 0 223 171" fill="none" xmlns="http://www.w3.org/2000/svg">
<path fill-rule="evenodd" clip-rule="evenodd" d="M54.667 51.1622C55.0616 49.3184 55.5777 47.4202 56.1949 45.5239C58.4372 38.6541 63.5837 25.873 72.8717 17.4462C74.9322 15.5752 77.3086 13.7586 80.137 11.8915C84.9705 8.69859 90.3619 5.96255 96.1606 3.76108C103.205 1.08724 110.664 -0.16366 118.399 0.0171232C133.611 0.390353 148.752 6.59043 159.94 17.0263C161.823 18.7816 163.676 20.7595 164.498 23.3226L165.559 26.6467L158.245 20.5195C158.151 20.4453 157.843 20.233 157.443 19.9567L157.303 19.8605C155.367 18.5231 154.52 17.9244 154.151 17.5171C137.67 6.56322 119.222 2.89507 103.529 7.4545C88.2878 11.8817 78.8385 17.0039 66.3547 34.153L66.1137 34.4796L66.0835 34.5205C65.8661 34.8149 65.6488 35.1092 65.4537 35.4185C62.6749 39.8905 60.4482 44.9825 58.6481 50.9863C58.3186 52.0914 58.0776 53.2849 57.9104 54.635C57.8492 55.1209 57.7092 55.5991 57.5634 56.0686C57.4147 56.5517 56.9015 57.0493 56.3018 57.0493H56.2912C55.8159 57.0435 55.3309 56.8121 55.0548 56.4574C54.8468 56.1998 54.6991 55.8567 54.6155 55.4456C54.3356 54.0683 54.3531 52.6269 54.667 51.1622ZM178.819 45.5035C178.513 44.2866 178.17 43.0736 177.789 41.8636C177.046 39.5114 175.937 36.6636 173.918 35.5138C169.398 32.9381 161.462 37.2808 157.895 39.9381C157.228 40.4348 156.589 40.9693 155.951 41.5038L155.951 41.5039L155.165 42.1561C145.529 50.0552 139.558 61.6369 133.786 72.8377L133.737 72.9341C132.386 75.5556 131.052 78.145 129.69 80.6415C129.217 81.5027 128.787 82.3871 128.375 83.2697L128.564 78.2709C128.618 76.7089 128.671 75.147 128.738 73.5851C128.779 72.5626 128.864 71.5401 128.978 70.5254L129.004 70.298C129.171 68.8313 129.34 67.3151 129.365 65.7881L129.368 65.5627L129.368 65.5212C129.37 65.2862 129.372 65.0514 129.403 64.8191C129.65 62.9423 129.604 61.0654 129.545 59.4549C129.514 58.584 129.431 57.7103 129.296 56.8608C129.215 56.3291 129.045 55.7732 128.773 55.1618C128.288 54.0645 127.429 53.2539 126.289 52.8194L126.091 52.7455L126.059 52.734C125.906 52.6786 125.751 52.6225 125.606 52.5443C124.956 52.1954 124.229 52.1624 123.618 52.4559C123.014 52.7436 122.591 53.3073 122.459 53.9993C122.368 54.4792 122.072 54.8968 121.732 55.3777L121.717 55.399L113.532 67.0828L113.329 67.3715L113.328 67.3721C111.972 69.3003 110.616 71.2293 109.231 73.138C108.942 73.5375 108.651 73.9341 108.354 74.3306L109.503 70.7383L109.578 70.5017C110.025 69.0913 110.472 67.6788 110.885 66.2576C111.602 63.7879 112.297 61.3123 112.959 58.8261C113.49 56.8267 113.984 54.8168 114.449 52.8019C114.856 51.0417 114.854 49.16 114.444 47.2083C114.222 46.1576 113.77 45.2275 113.066 44.3673L112.831 44.135C112.414 43.3205 111.544 42.4448 109.752 42.9006C108.814 43.1388 107.887 43.4955 106.916 43.9931L97.6026 48.7984L97.5569 48.8225C97.0667 49.0798 96.577 49.3369 96.0718 49.5575C93.8567 50.5236 91.6319 51.4694 89.4062 52.4102C83.9797 54.704 78.0722 56.4419 71.3473 57.7219C69.9127 57.996 68.4635 58.1982 67.0173 58.3926C65.8509 58.549 64.6428 58.7104 63.4405 58.7687C61.0086 58.8902 58.7489 58.8406 56.5484 58.6239L56.5451 58.6236C54.9053 58.4623 53.0472 58.2796 51.2823 57.927C48.7319 57.4167 46.6238 56.6362 44.8373 55.5418L44.5418 55.361L44.537 55.3581C42.8709 54.3406 41.2975 53.3797 40.3216 51.7998C39.9387 51.1787 39.2476 50.8648 38.4934 50.9581C37.7139 51.0524 37.1161 51.5714 36.9305 52.3159C36.8197 52.764 36.7944 53.2276 36.8576 53.6582C36.9742 54.4581 37.365 55.0908 37.7693 55.6565C38.3398 56.4535 39.0445 57.0872 39.6588 57.6189C42.2578 59.8622 45.2261 61.4532 48.4851 62.3474C51.9199 63.2912 55.4306 63.5371 58.4524 63.6926C58.6798 63.7043 58.9083 63.7227 59.1357 63.7422L59.1774 63.7455C59.5222 63.7726 59.8678 63.7998 60.2116 63.8063L60.4284 63.8112C61.2827 63.8297 62.1439 63.8452 63.0021 63.7966C64.1335 63.7295 65.259 63.6168 66.3855 63.5021L67.0824 63.4331C67.8813 63.3544 68.6812 63.2737 69.4743 63.1367C71.2627 62.8256 73.0531 62.5039 74.8298 62.1268C78.1451 61.4231 81.0231 60.6533 83.6289 59.7747C86.3397 58.8588 89.0157 57.7637 91.6027 56.705L91.6164 56.6994L92.5776 56.3058C96.0533 54.8887 99.6107 53.216 103.455 51.1933C104.468 50.6617 105.492 50.1494 106.516 49.6382L105.57 53.3462C104.393 57.9873 103.086 62.6837 101.823 67.2247L101.125 69.7372C100.356 72.5004 99.772 75.3901 99.3366 78.5703C99.2394 79.2759 99.1782 79.9884 99.1393 80.6979C99.0596 82.078 99.3337 83.2007 99.982 84.126C100.258 84.5225 102.077 86.0106 102.481 86.1991L102.753 86.3128C103.774 86.6647 104.665 86.4227 105.508 85.4478L105.512 85.444C105.57 85.3718 105.643 85.2821 105.681 85.2544C107.127 84.125 108.461 82.7351 109.76 81.007C111.359 78.8823 113.05 76.5185 115.083 73.5676C116.925 70.8994 118.743 68.215 120.561 65.5309L120.793 65.1884L121.667 63.9006L121.667 63.9063C121.642 64.162 121.616 64.4176 121.592 64.6733L121.445 66.2061C121.345 67.2908 121.247 68.3755 121.167 69.4602L121.077 70.5964L121.073 70.6549C120.974 71.8912 120.875 73.1275 120.836 74.3656C120.768 76.5847 120.766 78.8057 120.764 81.0248V81.025L120.764 81.1207V81.7418C120.759 83.4815 120.757 85.2816 120.959 87.0787C121.21 89.3346 121.682 91.3748 122.4 93.3148C122.621 93.9155 122.933 94.4695 123.3 94.9175C124.244 96.0712 125.818 96.3512 127.133 95.5989C127.547 95.3617 127.894 95.0808 128.164 94.761C128.566 94.278 129.028 93.7094 129.413 93.0767C130.611 91.0987 131.619 88.9945 132.447 87.1963L132.81 86.3974L132.845 86.3197C133.137 85.6711 133.429 85.0233 133.757 84.3952C134.623 82.738 135.526 81.0983 136.432 79.4616C138.287 76.1142 140.146 72.7658 142.024 69.433L143.46 66.869C148.012 58.7211 152.313 51.0232 159.174 44.8795C162.016 42.332 167.458 38.6697 170.792 39.008C171.705 39.1013 172.4 39.4891 172.919 40.1918C173.652 41.1833 173.903 42.6513 174.146 44.0753L174.151 44.1C174.208 44.4402 174.265 44.7736 174.327 45.0933C174.987 48.501 175.351 51.6861 175.439 54.8304C175.608 60.7602 174.885 67.0799 173.292 73.6114C169.226 90.2619 159.614 104.12 146.224 112.633C132.674 121.251 116.125 123.774 99.6301 119.729C96.3206 118.919 93.119 117.83 90.1147 116.497C85.6836 114.529 81.4118 111.83 77.4191 108.476C66.263 99.1008 58.9481 86.6054 56.8244 73.2897C56.7522 72.8297 56.5305 72.4774 56.2714 72.0657L56.2636 72.0533C56.0254 71.6675 55.5706 71.4488 55.1196 71.4605C54.6239 71.475 54.1797 71.7384 53.9484 72.168C53.858 72.3352 53.721 72.5889 53.686 72.9067L53.6568 73.1458C53.6014 73.5832 53.5499 74.0225 53.5635 74.4628C54.0077 86.2477 59.5167 97.5671 70.4035 109.066C71.9275 110.676 73.5342 112.239 75.1787 113.708C86.5379 123.866 101.145 129.001 115.975 129C129.252 129 142.71 124.882 154.159 116.57C164.681 108.927 172.672 98.0258 176.661 85.8745C181.228 72.0417 181.973 58.0815 178.819 45.5035ZM89.0605 160.386C89.593 159.308 90.3193 158.475 91.2391 157.885C92.1576 157.295 93.2082 157 94.386 157C95.2111 157 95.8765 157.123 96.3834 157.371C96.8911 157.618 97.3669 157.907 97.8109 158.237C97.9749 158.363 98.1028 158.427 98.1913 158.427C98.4313 158.427 98.5904 158.04 98.6672 157.267H99.1043C99.0794 157.736 99.0593 158.306 99.0469 158.978C99.0337 159.651 99.0282 160.538 99.0282 161.641H98.5904C98.5019 161.109 98.3933 160.595 98.2674 160.101C98.1408 159.606 97.9313 159.181 97.6394 158.827C97.2715 158.358 96.7894 157.992 96.1939 157.732C95.597 157.472 94.9836 157.342 94.3487 157.342C93.7151 157.342 93.1404 157.498 92.6279 157.809C92.114 158.119 91.6728 158.567 91.3048 159.15C90.9369 159.733 90.6547 160.434 90.4597 161.251C90.2632 162.07 90.1643 162.992 90.1643 164.019C90.1643 166.302 90.5309 167.973 91.2668 169.032C92.0034 170.091 93.1438 170.619 94.691 170.619C95.1482 170.619 95.5438 170.553 95.8792 170.42C96.2167 170.287 96.4789 170.157 96.6704 170.03C96.9104 169.865 97.0619 169.71 97.1269 169.564C97.1898 169.419 97.221 169.225 97.221 168.984V167.158C97.221 166.638 97.1705 166.251 97.0688 165.997C96.9678 165.744 96.7797 165.573 96.5072 165.483C96.2347 165.395 95.8329 165.345 95.2996 165.331V164.952C95.5286 164.964 95.7955 164.973 96.0985 164.979C96.358 164.986 96.6286 164.991 96.9103 164.996L97.0591 164.999C97.3953 165.006 97.7024 165.008 97.9818 165.008C98.4009 165.008 98.7785 165.002 99.114 164.99C99.4501 164.977 99.7323 164.964 99.9605 164.952V165.331C99.5428 165.358 99.2758 165.459 99.1617 165.636C99.0469 165.814 98.9908 166.258 98.9908 166.968V170.734H98.6098C98.5973 170.518 98.5496 170.284 98.4666 170.03C98.385 169.776 98.2612 169.65 98.0959 169.65C98.0198 169.65 97.9437 169.668 97.8683 169.707C97.7923 169.745 97.6588 169.834 97.4679 169.973C97.0495 170.29 96.6054 170.541 96.1365 170.724C95.6669 170.908 95.1226 171 94.5015 171C92.5352 171 91.0047 170.401 89.9071 169.203C88.8101 168.004 88.261 166.346 88.261 164.228C88.261 162.745 88.5279 161.464 89.0605 160.386ZM117.727 157C118.93 157 119.986 157.273 120.894 157.818C121.8 158.363 122.503 159.147 123.005 160.167C123.505 161.188 123.757 162.427 123.757 163.886C123.757 165.306 123.499 166.549 122.985 167.614C122.473 168.679 121.759 169.511 120.846 170.106C119.933 170.702 118.887 171 117.707 171C116.502 171 115.447 170.727 114.54 170.182C113.633 169.637 112.928 168.85 112.429 167.824C111.928 166.796 111.677 165.56 111.677 164.114C111.677 162.695 111.937 161.451 112.457 160.386C112.977 159.321 113.691 158.49 114.597 157.894C115.503 157.298 116.547 157 117.727 157ZM117.649 157.342C116.825 157.342 116.109 157.627 115.501 158.199C114.893 158.768 114.419 159.556 114.083 160.558C113.748 161.559 113.579 162.72 113.579 164.038C113.579 165.382 113.766 166.553 114.141 167.548C114.514 168.544 115.021 169.31 115.662 169.849C116.302 170.388 117.009 170.658 117.783 170.658C118.607 170.658 119.324 170.373 119.933 169.802C120.541 169.231 121.014 168.442 121.35 167.433C121.686 166.425 121.855 165.268 121.855 163.962C121.855 162.605 121.666 161.433 121.293 160.443C120.919 159.455 120.415 158.69 119.78 158.151C119.147 157.612 118.436 157.342 117.649 157.342ZM170.855 157.171H171.007H171.16L175.801 169.137C175.992 169.618 176.207 169.938 176.448 170.097C176.689 170.256 176.911 170.341 177.114 170.353V170.734C176.86 170.709 176.55 170.694 176.182 170.686C175.813 170.68 175.446 170.677 175.078 170.677C174.583 170.677 174.121 170.68 173.69 170.686C173.259 170.694 172.91 170.709 172.643 170.734V170.353C173.29 170.328 173.703 170.217 173.879 170.021C174.058 169.824 174.019 169.402 173.766 168.756L172.598 165.636H167.998L167.222 167.652C166.955 168.337 166.829 168.873 166.842 169.26C166.854 169.647 167 169.923 167.279 170.087C167.558 170.252 167.964 170.341 168.496 170.353V170.734C168.142 170.709 167.769 170.694 167.383 170.686C166.997 170.68 166.639 170.677 166.309 170.677C165.992 170.677 165.722 170.68 165.5 170.686C165.278 170.694 165.073 170.709 164.883 170.734V170.353C165.136 170.29 165.396 170.141 165.662 169.906C165.928 169.672 166.169 169.269 166.385 168.699L170.855 157.171ZM168.145 165.255H172.456L170.331 159.579L168.145 165.255ZM181.059 157.789C180.838 157.707 180.511 157.66 180.08 157.647V157.267C180.346 157.28 180.696 157.292 181.127 157.304C181.558 157.318 181.982 157.324 182.401 157.324C182.996 157.324 183.568 157.318 184.113 157.304C184.658 157.292 185.045 157.286 185.273 157.286C186.808 157.286 187.956 157.602 188.717 158.237C189.477 158.871 189.857 159.657 189.857 160.595C189.857 160.976 189.782 161.382 189.63 161.812C189.477 162.243 189.214 162.649 188.84 163.03C188.466 163.411 187.956 163.725 187.308 163.972C186.979 164.098 186.606 164.191 186.188 164.253C186.258 164.263 186.327 164.274 186.395 164.286C187.245 164.425 187.857 164.682 188.23 165.056C188.604 165.43 188.881 166.011 189.058 166.796L189.534 168.737C189.661 169.295 189.791 169.698 189.925 169.945C190.057 170.192 190.263 170.309 190.543 170.297C190.758 170.284 190.939 170.214 191.085 170.087C191.229 169.961 191.386 169.79 191.55 169.574L191.836 169.783C191.57 170.176 191.294 170.477 191.007 170.686C190.722 170.896 190.321 171 189.8 171C189.331 171 188.919 170.86 188.564 170.582C188.208 170.303 187.943 169.758 187.765 168.946L187.346 167.044C187.232 166.499 187.102 166.026 186.957 165.626C186.811 165.227 186.607 164.913 186.348 164.685C186.088 164.456 185.704 164.342 185.198 164.342H184.872L184.855 164.342H183.389V168.718C183.389 169.174 183.427 169.516 183.505 169.745C183.581 169.974 183.729 170.125 183.951 170.202C184.173 170.278 184.499 170.328 184.93 170.353V170.734C184.64 170.709 184.274 170.694 183.838 170.686C183.399 170.68 182.958 170.677 182.515 170.677C182.02 170.677 181.558 170.68 181.127 170.686C180.696 170.694 180.346 170.709 180.08 170.734V170.353C180.511 170.328 180.838 170.278 181.059 170.202C181.282 170.125 181.43 169.974 181.508 169.745C181.583 169.516 181.621 169.174 181.621 168.718V159.283C181.621 158.814 181.583 158.468 181.508 158.246C181.43 158.024 181.282 157.872 181.059 157.789ZM183.389 163.962V159.283C183.389 158.623 183.478 158.186 183.656 157.97C183.833 157.755 184.214 157.647 184.799 157.647C185.952 157.647 186.766 157.923 187.242 158.475C187.717 159.026 187.956 159.803 187.956 160.805C187.956 161.388 187.87 161.918 187.699 162.393C187.527 162.869 187.204 163.248 186.728 163.535C186.253 163.82 185.565 163.962 184.664 163.962H183.389ZM201.776 157.324C202.404 157.324 203.035 157.318 203.668 157.304C204.303 157.292 204.879 157.28 205.4 157.267C205.347 157.748 205.314 158.215 205.294 158.664C205.276 159.115 205.266 159.46 205.266 159.702C205.266 160.005 205.272 160.291 205.285 160.558C205.297 160.824 205.31 161.058 205.324 161.261H204.886C204.798 160.374 204.677 159.673 204.524 159.159C204.372 158.645 204.107 158.275 203.726 158.046C203.345 157.818 202.755 157.704 201.956 157.704H200.929V168.527C200.929 169.034 200.977 169.415 201.073 169.669C201.167 169.923 201.353 170.093 201.633 170.182C201.913 170.271 202.319 170.328 202.851 170.353V170.734C202.521 170.709 202.102 170.694 201.595 170.686C201.088 170.68 200.574 170.677 200.054 170.677C199.484 170.677 198.948 170.68 198.448 170.686C197.946 170.694 197.542 170.709 197.24 170.734V170.353C197.771 170.328 198.177 170.271 198.456 170.182C198.736 170.093 198.922 169.923 199.018 169.669C199.113 169.415 199.16 169.034 199.16 168.527V157.704H198.133C197.346 157.704 196.76 157.818 196.373 158.046C195.986 158.275 195.717 158.645 195.565 159.159C195.412 159.673 195.291 160.374 195.203 161.261H194.766C194.792 161.058 194.806 160.824 194.814 160.558C194.82 160.291 194.824 160.005 194.824 159.702C194.824 159.46 194.814 159.115 194.795 158.664C194.776 158.215 194.741 157.748 194.69 157.267C195.039 157.275 195.408 157.283 195.798 157.292C196.003 157.296 196.214 157.3 196.43 157.304C197.058 157.318 197.689 157.324 198.324 157.324H200.054H201.776ZM210.459 170.686C210.89 170.68 211.352 170.677 211.847 170.677C212.291 170.677 212.731 170.68 213.17 170.686C213.606 170.694 213.971 170.709 214.262 170.734V170.353C213.831 170.328 213.505 170.278 213.283 170.202C213.062 170.125 212.912 169.974 212.837 169.745C212.76 169.516 212.722 169.174 212.722 168.718V164.152H218.904V168.718C218.904 169.174 218.866 169.516 218.791 169.745C218.715 169.974 218.564 170.125 218.343 170.202C218.12 170.278 217.795 170.328 217.364 170.353V170.734C217.656 170.709 218.022 170.694 218.466 170.686C218.91 170.68 219.348 170.677 219.78 170.677C220.274 170.677 220.737 170.68 221.168 170.686C221.599 170.694 221.948 170.709 222.215 170.734V170.353C221.782 170.328 221.456 170.278 221.234 170.202C221.013 170.125 220.863 169.974 220.788 169.745C220.712 169.516 220.675 169.174 220.675 168.718V159.283C220.675 158.814 220.712 158.468 220.788 158.246C220.863 158.024 221.013 157.872 221.234 157.789C221.456 157.707 221.782 157.66 222.215 157.647V157.267C221.948 157.28 221.599 157.292 221.168 157.304C220.737 157.318 220.274 157.324 219.78 157.324C219.348 157.324 218.91 157.318 218.466 157.304C218.022 157.292 217.656 157.28 217.364 157.267V157.647C217.795 157.66 218.12 157.707 218.343 157.789C218.564 157.872 218.715 158.024 218.791 158.246C218.866 158.468 218.904 158.814 218.904 159.283V163.771H212.722V159.283C212.722 158.814 212.76 158.468 212.837 158.246C212.912 158.024 213.062 157.872 213.283 157.789C213.505 157.707 213.831 157.66 214.262 157.647V157.267C213.971 157.28 213.606 157.292 213.17 157.304C212.731 157.318 212.291 157.324 211.847 157.324C211.352 157.324 210.89 157.318 210.459 157.304C210.028 157.292 209.678 157.28 209.412 157.267V157.647C209.844 157.66 210.169 157.707 210.391 157.789C210.613 157.872 210.763 158.024 210.84 158.246C210.915 158.468 210.953 158.814 210.953 159.283V168.718C210.953 169.174 210.915 169.516 210.84 169.745C210.763 169.974 210.613 170.125 210.391 170.202C210.169 170.278 209.844 170.328 209.412 170.353V170.734C209.678 170.709 210.028 170.694 210.459 170.686ZM157.902 161.261C157.852 161.565 157.794 161.914 157.73 162.307C157.667 162.7 157.524 163.043 157.302 163.334C157.088 163.615 156.72 163.76 156.196 163.771H154.876V159.283C154.876 158.814 154.915 158.468 154.992 158.246C155.067 158.024 155.216 157.878 155.438 157.809C155.66 157.739 155.986 157.704 156.417 157.704H157.996C158.668 157.704 159.173 157.796 159.509 157.979C159.844 158.163 160.083 158.475 160.222 158.912C160.361 159.35 160.469 159.942 160.545 160.691H160.983C160.97 160.552 160.958 160.377 160.945 160.167C160.933 159.958 160.926 159.74 160.926 159.511C160.926 159.296 160.935 158.978 160.953 158.56C160.973 158.142 161.008 157.71 161.059 157.267C160.476 157.292 159.814 157.308 159.072 157.313C158.329 157.321 157.667 157.324 157.082 157.324H155.572C154.944 157.324 154.274 157.318 153.564 157.304C152.854 157.292 152.188 157.28 151.567 157.267V157.647C151.998 157.66 152.324 157.707 152.547 157.789C152.768 157.872 152.917 158.024 152.994 158.246C153.07 158.468 153.108 158.814 153.108 159.283V168.718C153.108 169.174 153.07 169.516 152.994 169.745C152.917 169.974 152.768 170.125 152.547 170.202C152.324 170.278 151.998 170.328 151.567 170.353V170.734C152.188 170.709 152.854 170.694 153.564 170.686C154.274 170.68 154.944 170.677 155.572 170.677H157.082C157.717 170.677 158.439 170.68 159.251 170.686C160.063 170.694 160.792 170.709 161.44 170.734C161.389 170.252 161.354 169.786 161.335 169.336C161.316 168.886 161.306 168.54 161.306 168.299C161.306 167.728 161.326 167.272 161.364 166.93H160.926C160.837 167.767 160.701 168.429 160.517 168.917C160.333 169.406 160.035 169.758 159.622 169.974C159.211 170.189 158.605 170.297 157.806 170.297H156.417C155.986 170.297 155.66 170.261 155.438 170.192C155.216 170.122 155.067 169.974 154.992 169.745C154.915 169.516 154.876 169.174 154.876 168.718V164.152H156.145C156.696 164.154 157.089 164.278 157.322 164.523C157.556 164.77 157.708 165.088 157.778 165.474C157.847 165.862 157.908 166.258 157.958 166.663H158.397C158.345 165.941 158.314 165.389 158.3 165.008C158.288 164.628 158.282 164.279 158.282 163.962C158.282 163.645 158.278 163.297 158.273 162.915C158.265 162.536 158.288 161.984 158.338 161.261H157.902ZM138.252 157.324C138.581 157.324 138.908 157.318 139.232 157.304C139.555 157.292 139.818 157.28 140.021 157.267V157.647C139.589 157.66 139.262 157.724 139.041 157.837C138.82 157.952 138.669 158.135 138.594 158.389C138.518 158.643 138.48 159.004 138.48 159.473V170.828H138.261H138.043L130.053 158.484V168.527C130.053 168.984 130.095 169.342 130.176 169.601C130.259 169.862 130.424 170.047 130.671 170.154C130.92 170.261 131.29 170.328 131.785 170.353V170.734C131.556 170.709 131.258 170.694 130.89 170.686C130.522 170.68 130.173 170.677 129.843 170.677C129.527 170.677 129.207 170.68 128.883 170.686C128.56 170.694 128.29 170.709 128.075 170.734V170.353C128.507 170.328 128.832 170.261 129.054 170.154C129.276 170.047 129.425 169.862 129.502 169.601C129.578 169.342 129.616 168.984 129.616 168.527V159.283C129.616 158.814 129.578 158.468 129.502 158.246C129.425 158.024 129.276 157.872 129.054 157.789C128.832 157.707 128.507 157.66 128.075 157.647V157.267C128.29 157.28 128.56 157.292 128.883 157.304C129.207 157.318 129.527 157.324 129.843 157.324C130.123 157.324 130.388 157.318 130.643 157.304C130.897 157.292 131.124 157.28 131.328 157.267L138.043 167.614V159.473C138.043 159.004 138.001 158.643 137.92 158.389C137.837 158.135 137.671 157.952 137.424 157.837C137.177 157.724 136.805 157.66 136.312 157.647V157.267C136.54 157.28 136.841 157.292 137.214 157.304C137.59 157.318 137.935 157.324 138.252 157.324ZM83.2308 157.304C82.9071 157.318 82.5799 157.324 82.2514 157.324C81.934 157.324 81.5888 157.318 81.2133 157.304C80.8398 157.292 80.5389 157.28 80.31 157.267V157.647C80.8045 157.66 81.1753 157.724 81.4229 157.837C81.6698 157.952 81.8358 158.135 81.9188 158.389C81.9997 158.643 82.0418 159.004 82.0418 159.473V167.614L75.3269 157.267C75.1235 157.28 74.896 157.292 74.6415 157.304C74.3877 157.318 74.1221 157.324 73.8427 157.324C73.5266 157.324 73.2064 157.318 72.882 157.304C72.559 157.292 72.2893 157.28 72.0742 157.267V157.647C72.5051 157.66 72.8308 157.707 73.0528 157.789C73.2755 157.872 73.4235 158.024 73.501 158.246C73.5771 158.468 73.6151 158.814 73.6151 159.283V168.527C73.6151 168.984 73.5771 169.342 73.501 169.601C73.4235 169.862 73.2755 170.047 73.0528 170.154C72.8308 170.261 72.5051 170.328 72.0742 170.353V170.734C72.2893 170.709 72.559 170.694 72.882 170.686C73.2064 170.68 73.5266 170.677 73.8427 170.677C74.1726 170.677 74.5211 170.68 74.8891 170.686C75.257 170.694 75.5544 170.709 75.7834 170.734V170.353C75.2895 170.328 74.9181 170.261 74.6698 170.154C74.4229 170.047 74.2583 169.862 74.1753 169.601C74.0937 169.342 74.0522 168.984 74.0522 168.527V158.484L82.0418 170.828H82.2597H82.479V159.473C82.479 159.004 82.517 158.643 82.5924 158.389C82.6685 158.135 82.8185 157.952 83.0406 157.837C83.2612 157.724 83.5883 157.66 84.0199 157.647V157.267C83.8173 157.28 83.5531 157.292 83.2308 157.304ZM65.3972 157.324C65.8406 157.324 66.2818 157.318 66.7203 157.304C67.1567 157.292 67.5219 157.28 67.813 157.267V157.647C67.3815 157.66 67.0557 157.707 66.8337 157.789C66.6117 157.872 66.463 158.024 66.3876 158.246C66.3102 158.468 66.2721 158.814 66.2721 159.283V168.718C66.2721 169.174 66.3102 169.516 66.3876 169.745C66.463 169.974 66.6117 170.125 66.8337 170.202C67.0557 170.278 67.3815 170.328 67.813 170.353V170.734C67.5219 170.709 67.1567 170.694 66.7203 170.686C66.2818 170.68 65.8406 170.677 65.3972 170.677C64.9027 170.677 64.4407 170.68 64.0098 170.686C63.5782 170.694 63.2283 170.709 62.9627 170.734V170.353C63.3943 170.328 63.72 170.278 63.942 170.202C64.164 170.125 64.3128 169.974 64.3902 169.745C64.4656 169.516 64.5036 169.174 64.5036 168.718V159.283C64.5036 158.814 64.4656 158.468 64.3902 158.246C64.3128 158.024 64.164 157.872 63.942 157.789C63.72 157.707 63.3943 157.66 62.9627 157.647V157.267C63.2283 157.28 63.5782 157.292 64.0098 157.304C64.4407 157.318 64.9027 157.324 65.3972 157.324ZM57.1233 157.324C56.7927 157.324 56.4379 157.318 56.0582 157.304C55.6778 157.292 55.303 157.28 54.9364 157.267V157.647C55.4683 157.66 55.8168 157.764 55.9814 157.961C56.1467 158.157 56.1523 158.439 56.0008 158.808C55.8493 159.175 55.563 159.625 55.1439 160.158L53.3187 162.478C53.078 162.783 52.7758 163.034 52.4147 163.23C52.071 163.417 51.6489 163.521 51.1497 163.541V159.283C51.1497 158.814 51.1871 158.468 51.2645 158.246C51.3406 158.024 51.49 157.872 51.7113 157.789C51.9333 157.707 52.2591 157.66 52.69 157.647V157.267C52.3995 157.28 52.0343 157.292 51.5979 157.304C51.1594 157.318 50.7181 157.324 50.2748 157.324C49.7803 157.324 49.3183 157.318 48.8867 157.304C48.4558 157.292 48.1059 157.28 47.8403 157.267V157.647C48.2719 157.66 48.5976 157.707 48.8196 157.789C49.0409 157.872 49.1903 158.024 49.2678 158.246C49.3432 158.468 49.3812 158.814 49.3812 159.283V168.718C49.3812 169.174 49.3432 169.516 49.2678 169.745C49.1903 169.974 49.0409 170.125 48.8196 170.202C48.5976 170.278 48.2719 170.328 47.8403 170.353V170.734C48.1059 170.709 48.4558 170.694 48.8867 170.686C49.3183 170.68 49.7803 170.677 50.2748 170.677C50.7181 170.677 51.1594 170.68 51.5979 170.686C52.0343 170.694 52.3995 170.709 52.69 170.734V170.353C52.2591 170.328 51.9333 170.278 51.7113 170.202C51.49 170.125 51.3406 169.974 51.2645 169.745C51.1871 169.516 51.1497 169.174 51.1497 168.718V163.928C51.4333 163.943 51.6709 163.98 51.8635 164.038C52.0724 164.102 52.2764 164.232 52.4728 164.428C52.6693 164.625 52.894 164.92 53.1465 165.313L55.9254 169.498C56.1274 169.79 56.1723 169.998 56.0582 170.125C55.9434 170.252 55.6709 170.328 55.2393 170.353V170.734C55.7089 170.709 56.099 170.694 56.4096 170.686C56.7201 170.68 56.9836 170.677 57.1987 170.677C57.5162 170.677 57.9 170.68 58.3503 170.686C58.7998 170.694 59.1781 170.709 59.4811 170.734V170.353C59.0882 170.252 58.7652 170.113 58.5121 169.935C58.2583 169.758 58.0231 169.511 57.8087 169.193L53.3905 163.009L56.4953 159.036C56.8633 158.567 57.2312 158.23 57.5992 158.027C57.9657 157.825 58.3468 157.698 58.7396 157.647V157.267C58.3593 157.304 57.8198 157.324 57.1233 157.324ZM37.7502 157.304C37.3124 157.318 36.8711 157.324 36.4271 157.324C35.9333 157.324 35.4706 157.318 35.0397 157.304C34.6088 157.292 34.2589 157.28 33.9933 157.267V157.647C34.4249 157.66 34.7506 157.707 34.9726 157.789C35.194 157.872 35.3433 158.024 35.4201 158.246C35.4962 158.468 35.5342 158.814 35.5342 159.283V168.718C35.5342 169.174 35.4962 169.516 35.4201 169.745C35.3433 169.974 35.194 170.125 34.9726 170.202C34.7506 170.278 34.4249 170.328 33.9933 170.353V170.734C34.6144 170.709 35.2797 170.694 35.9907 170.686C36.6996 170.68 37.3698 170.677 37.9978 170.677H39.509C40.1439 170.677 40.866 170.68 41.6772 170.686C42.4892 170.694 43.2182 170.709 43.8662 170.734C43.8151 170.252 43.7805 169.786 43.7604 169.336C43.7424 168.886 43.7321 168.54 43.7321 168.299C43.7321 167.652 43.7521 167.133 43.7902 166.74H43.3517C43.2631 167.614 43.1269 168.312 42.9429 168.832C42.7589 169.352 42.4615 169.725 42.0486 169.954C41.6364 170.182 41.0313 170.297 40.2324 170.297H38.843C38.4121 170.297 38.0863 170.261 37.8643 170.192C37.6423 170.122 37.4936 169.974 37.4175 169.745C37.3401 169.516 37.3027 169.174 37.3027 168.718V159.283C37.3027 158.814 37.3401 158.468 37.4175 158.246C37.4936 158.024 37.6423 157.872 37.8643 157.789C38.0863 157.707 38.4121 157.66 38.843 157.647V157.267C38.5525 157.28 38.1873 157.292 37.7502 157.304ZM21.1332 167.652L21.9096 165.636H26.5099L27.6774 168.756C27.9305 169.402 27.9693 169.824 27.7908 170.021C27.6145 170.217 27.2009 170.328 26.5549 170.353V170.734C26.8219 170.709 27.1704 170.694 27.6013 170.686C28.0322 170.68 28.4949 170.677 28.9887 170.677C29.3573 170.677 29.7253 170.68 30.0925 170.686C30.4612 170.694 30.771 170.709 31.0255 170.734V170.353C30.8222 170.341 30.6002 170.256 30.3602 170.097C30.1181 169.938 29.9037 169.618 29.7122 169.137L25.072 157.171H24.9192H24.767L20.2964 168.699C20.0799 169.269 19.8399 169.672 19.5736 169.906C19.308 170.141 19.048 170.29 18.7935 170.353V170.734C18.9844 170.709 19.1898 170.694 19.4118 170.686C19.6331 170.68 19.9035 170.677 20.221 170.677C20.5509 170.677 20.9092 170.68 21.2951 170.686C21.681 170.694 22.0531 170.709 22.4072 170.734V170.353C21.8754 170.341 21.4694 170.252 21.1913 170.087C20.9119 169.923 20.766 169.647 20.7529 169.26C20.7404 168.873 20.867 168.337 21.1332 167.652ZM24.2425 159.578L22.0564 165.255H26.3673L24.2425 159.578ZM15.9592 157.324C16.2891 157.324 16.5623 157.318 16.7767 157.304C16.9932 157.292 17.1951 157.28 17.386 157.267V157.647C17.1446 157.698 16.8797 157.84 16.5872 158.075C16.2953 158.309 16.0602 158.718 15.8838 159.302L12.2881 170.828H12.212H12.1366H12.0605H11.9844L8.67885 161.024L5.65058 170.828H5.57312H5.49704H5.42165H5.34557L1.3134 158.865C1.14741 158.37 0.937847 158.046 0.684712 157.894C0.430886 157.742 0.203338 157.66 0 157.647V157.267C0.253826 157.28 0.567137 157.292 0.942689 157.304C1.31617 157.318 1.67927 157.324 2.03476 157.324C2.45388 157.324 2.84396 157.318 3.20499 157.304C3.5674 157.292 3.86204 157.28 4.08958 157.267V157.647C3.75968 157.672 3.52245 157.736 3.37651 157.837C3.23058 157.939 3.16142 158.1 3.16696 158.322C3.17387 158.544 3.24026 158.852 3.36614 159.245L6.14865 167.732L8.45622 160.364L7.95087 158.865C7.78626 158.37 7.6023 158.046 7.40034 157.894C7.197 157.742 7.0068 157.66 6.82836 157.647V157.267C7.05729 157.28 7.34225 157.292 7.68529 157.304C8.02834 157.318 8.35686 157.324 8.67431 157.324C9.16882 157.324 9.63221 157.318 10.0631 157.304C10.4933 157.292 10.8426 157.28 11.1095 157.267V157.647C10.7284 157.66 10.4269 157.698 10.2049 157.761C9.98286 157.825 9.85699 157.964 9.82448 158.179C9.79336 158.395 9.85353 158.75 10.0057 159.245L12.742 167.711L15.0843 160.348C15.3132 159.651 15.417 159.109 15.399 158.722C15.3796 158.335 15.2364 158.062 14.9709 157.903C14.7039 157.745 14.3048 157.66 13.7723 157.647V157.267C14.1388 157.28 14.5144 157.292 14.8948 157.304C15.2752 157.318 15.6293 157.324 15.9592 157.324Z" fill="#5D686E"/>
</svg>
