<svg width="20" height="20" viewBox="0 0 20 20" fill="none" xmlns="http://www.w3.org/2000/svg">
<g clip-path="url(#clip0)">
<path d="M17.0832 9.58329C17.0832 9.14127 16.9076 8.71734 16.595 8.40478C16.2825 8.09222 15.8585 7.91663 15.4165 7.91663H4.58317C4.14114 7.91663 3.71722 8.09222 3.40466 8.40478C3.0921 8.71734 2.9165 9.14127 2.9165 9.58329V17.9166C2.9165 18.3587 3.0921 18.7826 3.40466 19.0951C3.71722 19.4077 4.14114 19.5833 4.58317 19.5833H15.4165C15.8585 19.5833 16.2825 19.4077 16.595 19.0951C16.9076 18.7826 17.0832 18.3587 17.0832 17.9166V9.58329Z" stroke="#5D686E" stroke-linecap="round" stroke-linejoin="round"/>
<path d="M5.4165 4.99996C5.4165 3.78438 5.89939 2.6186 6.75893 1.75905C7.61847 0.899512 8.78426 0.416626 9.99984 0.416626C11.2154 0.416626 12.3812 0.899512 13.2407 1.75905C14.1003 2.6186 14.5832 3.78438 14.5832 4.99996V7.91663H5.4165V4.99996Z" stroke="#5D686E" stroke-linecap="round" stroke-linejoin="round"/>
<path d="M10.0002 14.7917C10.5755 14.7917 11.0418 14.3253 11.0418 13.75C11.0418 13.1747 10.5755 12.7084 10.0002 12.7084C9.42487 12.7084 8.9585 13.1747 8.9585 13.75C8.9585 14.3253 9.42487 14.7917 10.0002 14.7917Z" stroke="#5D686E" stroke-linecap="round" stroke-linejoin="round"/>
</g>
<defs>
<clipPath id="clip0">
<rect width="20" height="20" fill="white"/>
</clipPath>
</defs>
</svg>
