<svg width="24" height="24" viewBox="0 0 24 24" fill="none" xmlns="http://www.w3.org/2000/svg">
<path fill-rule="evenodd" clip-rule="evenodd" d="M20.8114 8.786C21.0205 7.94342 21.8571 7.40942 22.7186 7.56885C23.4626 7.72742 23.9957 8.37714 24 9.13229C24 9.23772 23.9906 9.34315 23.97 9.44601L23.9451 9.54886L22.1966 16.0255C22.1023 16.3718 21.9171 16.6855 21.66 16.9349L21.5606 17.0258L19.6808 18.6252C19.4391 18.8309 19.29 19.1207 19.2625 19.4318L19.2582 19.5364V20.0001H20.064C20.2671 20.0001 20.4351 20.1484 20.4634 20.3412L20.4677 20.4012V23.6001C20.4677 23.8016 20.3185 23.9678 20.1248 23.9961L20.0648 24.0004H12.8073C12.6042 24.0004 12.437 23.8521 12.4079 23.6593L12.4036 23.6001V20.4004C12.4036 20.1998 12.5528 20.0335 12.7473 20.0052L12.8073 20.0001H13.6131V16.9658C13.6165 15.7401 14.2456 14.6026 15.2768 13.9409L15.4079 13.8603L18.1654 12.2566C18.6582 11.9737 19.2625 11.9712 19.7545 12.2437L19.8583 12.3063L20.8114 8.78686V8.786ZM1.28124 7.56885C2.10753 7.41542 2.91154 7.90142 3.16097 8.68657L4.14155 12.3063C4.61641 11.9935 5.21899 11.9549 5.72728 12.1975L5.83442 12.254L8.59444 13.8603C9.65902 14.4826 10.3293 15.5952 10.3842 16.8124L10.3876 16.9658V20.0001H11.1933C11.3965 20.0001 11.5645 20.1484 11.5928 20.3412L11.597 20.4012V23.6001C11.597 23.8016 11.4479 23.9678 11.2542 23.9961L11.1942 24.0004H3.93669C3.73355 24.0004 3.5664 23.8521 3.53726 23.6593L3.53297 23.6001V20.4004C3.53297 20.1998 3.68212 20.0335 3.87669 20.0052L3.93669 20.0001H4.74241V19.5372C4.74241 19.2201 4.61727 18.9201 4.39612 18.6964L4.31898 18.6252L2.43839 17.0249C2.1641 16.7926 1.95839 16.4909 1.84267 16.1532L1.8041 16.0246L0.0538004 9.54715C-0.0593434 9.12286 0.00751433 8.67114 0.239802 8.29657C0.471232 7.92285 0.848379 7.65971 1.28124 7.56885V7.56885ZM19.6611 20.8007H13.2102V23.2007H19.6611V20.8007ZM10.7905 20.8007H4.33955V23.2007H10.7905V20.8007ZM22.5531 8.35571C22.1408 8.29314 21.7474 8.53314 21.6137 8.91715L21.5906 8.996L20.4814 13.0958C20.7317 13.8106 20.4531 14.5975 19.8205 15.0029L19.728 15.0586L17.4694 16.3495C17.3451 16.4206 17.1908 16.4206 17.0665 16.3495C16.9414 16.2775 16.8642 16.1455 16.8642 16.0023C16.8642 15.8798 16.9208 15.7649 17.0159 15.6903L17.0665 15.6561L19.3242 14.3652C19.7142 14.1552 19.8745 13.682 19.692 13.2809C19.5565 13.0092 19.2762 12.8377 18.972 12.8403C18.858 12.8403 18.7465 12.8643 18.6437 12.9089L18.5682 12.9475L15.8142 14.5503C14.9931 15.0303 14.4728 15.8858 14.4239 16.8244L14.4196 16.9658V20.0001H18.4517V19.5372C18.4517 18.9947 18.6737 18.4778 19.0628 18.1024L19.1562 18.0184L21.036 16.4189C21.1945 16.2844 21.3154 16.1103 21.3857 15.9175L21.4174 15.8189L23.1668 9.34144C23.1848 9.27286 23.1943 9.20343 23.1934 9.13315C23.19 8.75686 22.9234 8.43457 22.5531 8.35571V8.35571ZM2.41182 8.99257C2.30639 8.564 1.88896 8.28543 1.44924 8.35228C1.07638 8.43028 0.809807 8.75514 0.807236 9.13229C0.807236 9.17943 0.810664 9.22658 0.819236 9.27201L0.833807 9.34058L2.58411 15.8181C2.63725 16.0178 2.74268 16.2003 2.8884 16.3478L2.96554 16.4181L4.84527 18.0175C5.26013 18.3707 5.51127 18.8747 5.54556 19.4121L5.54899 19.5364V20.0001H9.58102V16.9658C9.57931 16.0195 9.09845 15.1418 8.30816 14.6258L8.1873 14.5503L5.42984 12.9458C5.30813 12.8772 5.16927 12.8403 5.0287 12.8403C4.72527 12.8377 4.44584 13.0075 4.30955 13.2775C4.13812 13.6529 4.26841 14.0926 4.60698 14.3189L4.67727 14.3618L6.935 15.6526C7.06014 15.7238 7.13729 15.8558 7.13729 15.9989C7.13729 16.1421 7.06014 16.2741 6.93586 16.3452C6.82871 16.4069 6.70014 16.4155 6.587 16.3718L6.53214 16.3461L4.27441 15.0552C3.60754 14.6866 3.28783 13.9152 3.4884 13.1952L3.52097 13.0923L2.41182 8.99257V8.99257ZM5.75042 0.0542143C5.85756 -0.00750053 5.98613 -0.0160722 6.09928 0.0276425L6.15414 0.0533576L6.72671 0.379075C7.96272 1.08194 9.46102 1.14879 10.7519 0.569361L10.9122 0.493075L11.8173 0.0430717C11.9116 -0.00407154 12.0205 -0.0117863 12.119 0.0199283L12.1773 0.0430717L13.0893 0.494789C14.3622 1.12737 15.8605 1.1128 17.1171 0.463933L17.2722 0.379075L17.8465 0.0533576C17.9717 -0.0177859 18.126 -0.0177859 18.2502 0.0533576C18.3574 0.115072 18.4294 0.221359 18.4474 0.340503L18.4517 0.400503V5.44055C18.456 9.06286 16.4828 12.3963 13.3071 14.1603L13.1151 14.264L12.1902 14.7535C12.0916 14.8058 11.9759 14.8143 11.8713 14.7792L11.8113 14.7535L10.8856 14.2649C7.66272 12.5635 5.62613 9.26772 5.55156 5.6574L5.54899 5.44055V0.400503C5.54899 0.258216 5.62613 0.126215 5.75042 0.0542143V0.0542143ZM11.9973 0.850507L11.2713 1.21051C9.77045 1.95623 8.00301 1.94166 6.51928 1.17794L6.35557 1.09051V5.44055C6.35214 8.76886 8.1633 11.8323 11.0785 13.4566L11.2653 13.5586L12.0008 13.9478L12.7353 13.5586C15.6976 11.9952 17.5697 8.96857 17.6434 5.65312L17.6451 5.44055V1.09051C16.1836 1.90994 14.4171 1.98194 12.8965 1.29194L12.7285 1.21222L11.9973 0.850507V0.850507ZM11.8173 1.83194C11.9116 1.7848 12.0213 1.77709 12.1208 1.8088L12.1799 1.83194L12.3702 1.92623C13.6019 2.53223 15.0051 2.70795 16.3508 2.42338C16.4699 2.39766 16.5942 2.42681 16.6894 2.50309C16.7682 2.56652 16.8197 2.65652 16.8351 2.75509L16.8394 2.81509V5.44055C16.8428 8.47657 15.1919 11.2709 12.5348 12.7555L12.3565 12.8523L12.1902 12.9406C12.0916 12.992 11.9759 13.0006 11.8713 12.9663L11.8113 12.9406L11.645 12.8523C8.9433 11.4269 7.23415 8.66686 7.16386 5.64369L7.16215 5.44055V2.81424C7.16215 2.69424 7.217 2.57938 7.31129 2.50395C7.40558 2.42766 7.52901 2.39852 7.64815 2.42252C8.92359 2.69252 10.2505 2.54938 11.4342 2.01709L11.6305 1.92452L11.8165 1.83194H11.8173ZM12.2313 2.74652L11.9999 2.63681L11.993 2.64109C10.8213 3.21881 9.50988 3.45367 8.2113 3.32081L7.96872 3.29167V5.44055C7.9653 8.23914 9.51502 10.8114 12.0008 12.134C14.4282 10.8423 15.9634 8.35743 16.0302 5.63598L16.0328 5.44055V3.29253C14.7376 3.47081 13.4193 3.28053 12.2313 2.74652V2.74652ZM14.2816 4.77283C14.3828 4.66825 14.5328 4.62711 14.6734 4.66311C14.8148 4.69997 14.9245 4.80883 14.9614 4.9494C14.9931 5.0694 14.9665 5.1954 14.8928 5.29226L14.8516 5.33769L11.4788 8.684C11.3373 8.82372 11.1162 8.83829 10.9593 8.726L10.9087 8.68314L9.36588 7.15227C9.21159 6.99542 9.21416 6.74599 9.37016 6.5917C9.50988 6.45284 9.7276 6.43741 9.88445 6.54541L9.93588 6.58655L11.1942 7.83542L14.2816 4.77283V4.77283Z" fill="white"/>
</svg>
