<svg width="38" height="38" viewBox="0 0 38 38" fill="none" xmlns="http://www.w3.org/2000/svg">
<g clip-path="url(#clip0)">
<path d="M18.636 36.3182C28.4516 36.3182 36.4087 28.3611 36.4087 18.5455C36.4087 8.72985 28.4516 0.772728 18.636 0.772728C8.8204 0.772728 0.863281 8.72985 0.863281 18.5455C0.863281 28.3611 8.8204 36.3182 18.636 36.3182Z" stroke="#5D686E" stroke-width="1.54545" stroke-linecap="round" stroke-linejoin="round"/>
<path d="M13.2272 11.9773C13.3036 11.9773 13.3783 11.9999 13.4418 12.0424C13.5054 12.0848 13.5549 12.1452 13.5841 12.2158C13.6134 12.2864 13.621 12.3641 13.6061 12.439C13.5912 12.514 13.5544 12.5828 13.5004 12.6368C13.4464 12.6909 13.3775 12.7277 13.3026 12.7426C13.2276 12.7575 13.1499 12.7498 13.0793 12.7206C13.0087 12.6913 12.9484 12.6418 12.9059 12.5783C12.8635 12.5148 12.8408 12.4401 12.8408 12.3636C12.8408 12.2612 12.8815 12.1629 12.954 12.0904C13.0264 12.018 13.1247 11.9773 13.2272 11.9773Z" stroke="#5D686E" stroke-width="1.54545" stroke-linecap="round" stroke-linejoin="round"/>
<path d="M24.0455 11.9773C23.9691 11.9773 23.8944 11.9999 23.8309 12.0424C23.7674 12.0848 23.7178 12.1452 23.6886 12.2158C23.6593 12.2864 23.6517 12.3641 23.6666 12.439C23.6815 12.514 23.7183 12.5828 23.7723 12.6368C23.8264 12.6909 23.8952 12.7277 23.9702 12.7426C24.0451 12.7575 24.1228 12.7498 24.1934 12.7206C24.264 12.6913 24.3243 12.6418 24.3668 12.5783C24.4092 12.5148 24.4319 12.4401 24.4319 12.3636C24.4319 12.2612 24.3912 12.1629 24.3187 12.0904C24.2463 12.018 24.148 11.9773 24.0455 11.9773Z" stroke="#5D686E" stroke-width="1.54545" stroke-linecap="round" stroke-linejoin="round"/>
<path d="M11.6816 23.9545H25.5907" stroke="#5D686E" stroke-width="1.54545" stroke-linecap="round" stroke-linejoin="round"/>
</g>
<defs>
<clipPath id="clip0">
<rect width="37.0909" height="37.0909" fill="white" transform="translate(0.0908203)"/>
</clipPath>
</defs>
</svg>
