<svg width="36" height="36" viewBox="0 0 36 36" fill="none" xmlns="http://www.w3.org/2000/svg">
<path d="M18 36C27.9411 36 36 27.9411 36 18C36 8.05887 27.9411 0 18 0C8.05887 0 0 8.05887 0 18C0 27.9411 8.05887 36 18 36Z" fill="#FCFCFC"/>
<path d="M18.005 24.3288C18.005 24.3288 11 20.406 11 15.6426C11.0001 14.8007 11.2919 13.9848 11.8256 13.3337C12.3593 12.6826 13.102 12.2364 13.9275 12.071C14.753 11.9056 15.6103 12.0312 16.3537 12.4265C17.097 12.8218 17.6806 13.4623 18.005 14.2392C18.3294 13.4623 18.913 12.8218 19.6563 12.4265C20.3997 12.0312 21.257 11.9056 22.0825 12.071C22.908 12.2364 23.6507 12.6826 24.1844 13.3337C24.7181 13.9848 25.0099 14.8007 25.01 15.6426C25.01 20.406 18.005 24.3288 18.005 24.3288Z" stroke="#212121" stroke-linecap="round" stroke-linejoin="round"/>
</svg>
