<svg width="38" height="38" viewBox="0 0 38 38" fill="none" xmlns="http://www.w3.org/2000/svg">
<g clip-path="url(#clip0)">
<path d="M13.7726 11.9773C13.849 11.9773 13.9237 11.9999 13.9872 12.0424C14.0508 12.0848 14.1003 12.1452 14.1295 12.2158C14.1588 12.2864 14.1664 12.3641 14.1515 12.439C14.1366 12.514 14.0998 12.5828 14.0458 12.6368C13.9918 12.6909 13.9229 12.7277 13.848 12.7426C13.773 12.7575 13.6953 12.7498 13.6247 12.7206C13.5541 12.6913 13.4938 12.6418 13.4513 12.5783C13.4089 12.5148 13.3862 12.4401 13.3862 12.3636C13.3862 12.2612 13.4269 12.1629 13.4994 12.0904C13.5719 12.018 13.6701 11.9773 13.7726 11.9773Z" stroke="#5D686E" stroke-width="1.54545" stroke-linecap="round" stroke-linejoin="round"/>
<path d="M24.591 11.9773C24.5145 11.9773 24.4398 11.9999 24.3763 12.0424C24.3128 12.0848 24.2632 12.1452 24.234 12.2158C24.2048 12.2864 24.1971 12.3641 24.212 12.439C24.2269 12.514 24.2637 12.5828 24.3178 12.6368C24.3718 12.6909 24.4406 12.7277 24.5156 12.7426C24.5905 12.7575 24.6682 12.7498 24.7388 12.7206C24.8094 12.6913 24.8697 12.6418 24.9122 12.5783C24.9547 12.5148 24.9773 12.4401 24.9773 12.3636C24.9773 12.2612 24.9366 12.1629 24.8642 12.0904C24.7917 12.018 24.6934 11.9773 24.591 11.9773Z" stroke="#5D686E" stroke-width="1.54545" stroke-linecap="round" stroke-linejoin="round"/>
<path d="M16.6777 28.5909C17.896 27.1287 19.5035 26.0413 21.314 25.4546C23.1246 24.868 25.0643 24.806 26.9086 25.2759" stroke="#5D686E" stroke-width="1.54545" stroke-linecap="round" stroke-linejoin="round"/>
<path d="M19.1819 36.3182C28.9975 36.3182 36.9546 28.3611 36.9546 18.5455C36.9546 8.72985 28.9975 0.772728 19.1819 0.772728C9.3663 0.772728 1.40918 8.72985 1.40918 18.5455C1.40918 28.3611 9.3663 36.3182 19.1819 36.3182Z" stroke="#5D686E" stroke-width="1.54545" stroke-linecap="round" stroke-linejoin="round"/>
</g>
<defs>
<clipPath id="clip0">
<rect width="37.0909" height="37.0909" fill="white" transform="translate(0.63623)"/>
</clipPath>
</defs>
</svg>
