<svg width="23" height="11" viewBox="0 0 23 11" xmlns="http://www.w3.org/2000/svg">
    <g stroke="#212121" stroke-width="1.5" fill="none" fill-rule="evenodd" stroke-linecap="round" stroke-linejoin="round">
        <path d="M4.429 10.001H2.143C1.513 10.001 1 9.497 1 8.876v-6.75c0-.62.512-1.125 1.143-1.125h2.286c.63 0 1.143.504 1.143 1.125v6.75c0 .621-.512 1.125-1.143 1.125zM12.43 5.501h2.666c.495 0 .976-.157 1.372-.45l2.761-2.038a1.752 1.752 0 0 1 2.264.158h0a1.684 1.684 0 0 1 0 2.41l-2.37 2.332a4.6 4.6 0 0 1-2.336 1.231l-3.35.66a4.642 4.642 0 0 1-2.005-.048l-3.029-.745a4.591 4.591 0 0 0-1.107-.135H5.572"/>
        <path d="M12.43 5.501h1.697c.957 0 1.732-.762 1.732-1.704v-.34c0-.783-.54-1.465-1.311-1.654l-2.62-.644A5.46 5.46 0 0 0 10.626 1h0c-1.06 0-2.096.309-2.977.888L5.572 3.25"/>
    </g>
</svg>
