<svg width="37" height="38" viewBox="0 0 37 38" xmlns="http://www.w3.org/2000/svg">
    <g fill="none" fill-rule="evenodd">
        <g stroke-linecap="round" stroke-linejoin="round" stroke="#323232" stroke-width="1.5">
            <path d="m6.012 24.622 2.156.33a3.084 3.084 0 0 1 2.61 3.273l-.159 2.176c-.046.633.3 1.23.871 1.506l1.594.768a1.55 1.55 0 0 0 1.722-.258l1.602-1.48a3.084 3.084 0 0 1 4.186 0l1.601 1.48a1.546 1.546 0 0 0 1.722.258l1.598-.77c.57-.274.914-.87.868-1.501l-.16-2.179a3.084 3.084 0 0 1 2.61-3.273l2.156-.33a1.548 1.548 0 0 0 1.275-1.185l.393-1.724a1.544 1.544 0 0 0-.634-1.62l-1.799-1.232a3.084 3.084 0 0 1-.93-4.08l1.086-1.89c.316-.551.264-1.24-.133-1.737l-1.102-1.382a1.548 1.548 0 0 0-1.663-.515l-2.085.638a3.086 3.086 0 0 1-3.774-1.816l-.798-2.024a1.548 1.548 0 0 0-1.443-.98l-1.767.005a1.548 1.548 0 0 0-1.438.987l-.779 2.001a3.083 3.083 0 0 1-3.78 1.828l-2.17-.666a1.548 1.548 0 0 0-1.669.518l-1.094 1.385a1.547 1.547 0 0 0-.122 1.742l1.111 1.895a3.085 3.085 0 0 1-.917 4.104L4.98 20.09a1.546 1.546 0 0 0-.634 1.62l.393 1.724c.14.622.646 1.092 1.273 1.187h0z"/>
            <path d="M21.454 16.046a4.178 4.178 0 1 1-5.91 5.908 4.178 4.178 0 0 1 5.91-5.908"/>
        </g>
        <path d="M0 .5h37v37H0z"/>
    </g>
</svg>
