<svg width="50" height="44" viewBox="0 0 50 44" fill="none" xmlns="http://www.w3.org/2000/svg">
<path fill-rule="evenodd" clip-rule="evenodd" d="M6.60718 15.5275C6.39666 16.1743 6.22063 16.8218 6.08603 17.4507C5.97895 17.9503 5.97298 18.4419 6.06846 18.9117C6.09697 19.0519 6.14736 19.1689 6.21831 19.2568C6.31246 19.3778 6.47789 19.4567 6.64 19.4587H6.64365C6.84819 19.4587 7.02323 19.2889 7.07396 19.1242C7.12368 18.964 7.17142 18.8009 7.19231 18.6352C7.24933 18.1747 7.33155 17.7676 7.44393 17.3907C8.0579 15.3429 8.81741 13.606 9.76522 12.0807C9.83177 11.9752 9.90589 11.8748 9.98005 11.7744L9.99032 11.7605L10.0725 11.6491C14.3306 5.79978 17.5536 4.05268 22.7521 2.54262C28.1048 0.987466 34.397 2.23862 40.0186 5.97483C40.1446 6.11373 40.4333 6.31795 41.0937 6.77412L41.1409 6.80672C41.2777 6.90107 41.3827 6.97355 41.4149 6.99888L43.9096 9.08878L43.5476 7.95498C43.2675 7.08077 42.6352 6.40613 41.9931 5.80741C38.177 2.2479 33.0126 0.133143 27.824 0.00584047C25.1858 -0.0558219 22.6417 0.370842 20.2389 1.28285C18.261 2.03374 16.4221 2.96696 14.7735 4.056C13.8087 4.69284 12.9982 5.31245 12.2954 5.95062C9.12738 8.82489 7.37199 13.1844 6.60718 15.5275ZM48.0811 14.2791C48.211 14.6918 48.328 15.1055 48.4325 15.5206C49.5083 19.8108 49.2543 24.5724 47.6965 29.2905C46.336 33.4352 43.6102 37.1535 40.0212 39.7602C36.1162 42.5954 31.526 44 26.9975 44C21.9392 44.0003 16.9568 42.2489 13.0824 38.7842C12.5214 38.283 11.9734 37.7499 11.4536 37.2009C7.74027 33.2787 5.86123 29.4178 5.70972 25.3982C5.70508 25.248 5.72265 25.0982 5.74155 24.949L5.7515 24.8674C5.76343 24.759 5.81017 24.6725 5.84101 24.6155C5.91991 24.4689 6.07141 24.3791 6.24049 24.3741C6.39431 24.3701 6.54946 24.4447 6.63068 24.5764L6.63334 24.5806C6.72171 24.721 6.79735 24.8412 6.82197 24.998C7.54634 29.5398 10.0413 33.8018 13.8465 36.9997C15.2084 38.1437 16.6654 39.064 18.1768 39.7354C19.2015 40.1902 20.2935 40.5615 21.4224 40.8377C27.0486 42.2174 32.693 41.3568 37.3147 38.4176C41.882 35.5138 45.1604 30.787 46.5475 25.1078C47.0908 22.88 47.3371 20.7244 47.2798 18.7019C47.2496 17.6294 47.1256 16.543 46.9002 15.3807C46.8793 15.2716 46.8597 15.1579 46.8402 15.0419L46.8387 15.0334C46.7557 14.5477 46.67 14.047 46.4202 13.7089C46.2431 13.4692 46.0061 13.3369 45.6945 13.3051C44.5574 13.1897 42.7012 14.4389 41.7318 15.3078C39.3916 17.4033 37.9247 20.0289 36.3722 22.808L35.8822 23.6826C35.2417 24.8194 34.6075 25.9614 33.975 27.1032C33.666 27.6615 33.358 28.2207 33.0626 28.786C32.9507 29.0002 32.8511 29.2212 32.7513 29.4425L32.7394 29.4689L32.6157 29.7414C32.3333 30.3547 31.9895 31.0725 31.5807 31.7471C31.4495 31.9629 31.292 32.1568 31.1547 32.3216C31.0629 32.4307 30.9446 32.5265 30.8033 32.6074C30.3548 32.864 29.8177 32.7685 29.4958 32.375C29.3705 32.2222 29.2641 32.0332 29.1888 31.8283C28.9438 31.1666 28.7831 30.4707 28.6972 29.7013C28.6286 29.0883 28.6292 28.4743 28.6309 27.8809V27.6691L28.6309 27.6364C28.6316 26.8795 28.6322 26.1219 28.6554 25.365C28.6688 24.9427 28.7024 24.521 28.7361 24.0994L28.7376 24.0794L28.7681 23.6919C28.7957 23.3219 28.8291 22.9519 28.863 22.5819L28.9133 22.0591C28.9216 21.9713 28.9303 21.8834 28.9389 21.7956L28.6408 22.2348L28.5613 22.3524C27.9413 23.2676 27.3214 24.183 26.6932 25.0929C25.9996 26.0993 25.4228 26.9056 24.8774 27.6303C24.4345 28.2197 23.9794 28.6938 23.4861 29.079C23.4734 29.0885 23.4485 29.1191 23.4284 29.1437L23.4274 29.145C23.1396 29.4775 22.8356 29.5601 22.4875 29.4401L22.3947 29.4013C22.2571 29.337 21.6365 28.8294 21.5424 28.6941C21.3213 28.3785 21.2278 27.9956 21.2549 27.5249C21.2682 27.2829 21.2891 27.0399 21.3222 26.7992C21.4708 25.7145 21.67 24.7289 21.9322 23.7863L22.1703 22.9294C22.6012 21.3805 23.0468 19.7786 23.4483 18.1956L23.7712 16.9309C23.4217 17.1053 23.0723 17.28 22.7269 17.4613C21.4157 18.1512 20.2024 18.7217 19.0169 19.2051L18.689 19.3394L18.6843 19.3413C17.802 19.7024 16.8892 20.0759 15.9646 20.3883C15.0758 20.688 14.0942 20.9505 12.9633 21.1906C12.3573 21.3192 11.7467 21.4289 11.1367 21.535C10.8662 21.5818 10.5933 21.6093 10.3208 21.6361L10.0831 21.6597C9.69888 21.6988 9.31499 21.7372 8.9291 21.7601C8.63637 21.7767 8.34264 21.7714 8.05124 21.7651L7.97731 21.7634C7.86007 21.7612 7.74222 21.7519 7.62465 21.7427L7.61032 21.7415C7.53274 21.7349 7.45484 21.7286 7.37726 21.7246C6.34657 21.6716 5.14913 21.5877 3.97754 21.2658C2.86596 20.9608 1.8535 20.4181 0.967025 19.653C0.757506 19.4716 0.517155 19.2555 0.322554 18.9836C0.184642 18.7907 0.0513718 18.5749 0.0115896 18.302C-0.00995903 18.1552 -0.00133956 17.997 0.0364535 17.8442C0.0997735 17.5903 0.303657 17.4132 0.569535 17.3811C0.826793 17.3493 1.0625 17.4563 1.19312 17.6682C1.52598 18.207 2.06265 18.5348 2.63093 18.8819L2.63257 18.8829L2.73335 18.9445C3.34268 19.3178 4.06175 19.584 4.93165 19.7581C5.53363 19.8783 6.16739 19.9407 6.72673 19.9957L6.72782 19.9958C7.47837 20.0697 8.24915 20.0866 9.07861 20.0452C9.4887 20.0253 9.90078 19.9702 10.2986 19.9169C10.7919 19.8506 11.2862 19.7816 11.7755 19.6881C14.0693 19.2515 16.0843 18.6588 17.9351 17.8764C18.6943 17.5555 19.4531 17.2329 20.2087 16.9034C20.381 16.8281 20.548 16.7404 20.7152 16.6527L20.7308 16.6445L23.9074 15.0054C24.2386 14.8357 24.5549 14.714 24.8748 14.6328C25.4861 14.4773 25.7828 14.776 25.925 15.0538L26.0053 15.1331C26.2453 15.4265 26.3994 15.7437 26.475 16.1021C26.6149 16.7678 26.6156 17.4096 26.477 18.01C26.3182 18.6972 26.1498 19.3828 25.9688 20.0647C25.7427 20.9127 25.5057 21.7571 25.2613 22.5995C25.1204 23.0842 24.9679 23.5659 24.8156 24.0469L24.7899 24.1278L24.3981 25.3531C24.4992 25.2178 24.5986 25.0826 24.6971 24.9463C25.1695 24.2952 25.6322 23.6372 26.0948 22.9795L26.1641 22.881L28.9558 18.8958L28.9609 18.8885C29.0771 18.7245 29.178 18.5821 29.2091 18.4184C29.2541 18.1824 29.3984 17.9901 29.6042 17.892C29.8128 17.7918 30.0607 17.8031 30.2822 17.9221C30.3318 17.9488 30.3846 17.9679 30.4367 17.9868L30.4476 17.9907L30.5152 18.0159C30.9041 18.1641 31.1972 18.4406 31.3626 18.8149C31.4554 19.0234 31.5134 19.2131 31.541 19.3944C31.587 19.6841 31.6152 19.9822 31.6258 20.2792C31.6461 20.8285 31.6616 21.4687 31.5774 22.1089C31.5668 22.1881 31.5662 22.2682 31.5656 22.3484L31.5655 22.3625L31.5645 22.4394C31.5559 22.9602 31.4982 23.4774 31.4415 23.9776L31.4326 24.0552C31.3938 24.4013 31.3646 24.7501 31.3507 25.0988C31.3278 25.6316 31.3096 26.1643 31.2913 26.6971L31.2267 28.4021C31.3672 28.1011 31.5141 27.7994 31.6752 27.5056C32.1399 26.6542 32.5949 25.7711 33.0555 24.877L33.0726 24.8439C35.0411 21.0235 37.0776 17.0731 40.3647 14.3789L40.6325 14.1564C40.8503 13.9741 41.0681 13.7917 41.2956 13.6223C42.5122 12.716 45.2191 11.2347 46.761 12.1133C47.4495 12.5054 47.8278 13.4768 48.0811 14.2791Z" fill="white"/>
</svg>
