<svg width="82" height="20" viewBox="0 0 82 20" xmlns="http://www.w3.org/2000/svg">
    <path d="M78.35 1.212c1.161.866 1.923 2.031 2.444 3.363.503 1.289.725 2.632.745 4.012 0 .068-.011.137-.021.258H68.27c.018 1.054.126 2.061.376 3.052.378 1.496.99 2.874 2.092 3.99 1.51 1.528 3.364 2.039 5.46 1.745 1.608-.226 2.873-1.08 3.963-2.228.216-.228.425-.464.614-.713.133-.175.251-.233.46-.116.233.13.091.29.042.417a7.853 7.853 0 0 1-1.898 2.883c-3.244 3.109-8.48 2.76-11.296-.739-1.319-1.638-2.015-3.513-2.174-5.584-.191-2.496.134-4.916 1.329-7.152C68.53 1.982 70.545.52 73.275.103c1.824-.277 3.556-.024 5.075 1.109zM51.637 0v4.343c.508-.588.943-1.122 1.41-1.627.829-.896 1.743-1.697 2.883-2.19 3.265-1.413 6.823.403 7.528 3.855.132.65.192 1.324.196 1.987.019 3.272.043 6.543-.006 9.814-.025 1.686.701 2.258 2.2 2.573.137.03.275.06.413.07.214.017.221.154.224.316.004.187-.092.234-.26.234-2.525-.003-5.05-.003-7.576-.005-.044 0-.089-.02-.128-.029-.098-.456-.093-.459.314-.54.273-.054.547-.108.813-.186 1.16-.34 1.619-.95 1.62-2.146.001-3.26.014-6.52-.012-9.78a7.407 7.407 0 0 0-.264-1.94c-.381-1.348-1.318-2.163-2.711-2.433-2.082-.404-3.824.281-5.33 1.674-.4.369-.78.759-1.147 1.159a.686.686 0 0 0-.162.427c-.008 3.697-.01 7.394-.004 11.092.001.954.503 1.592 1.481 1.897.353.11.719.191 1.085.25.22.037.246.148.25.33.002.2-.102.225-.237.229H46.72c-.157 0-.301.01-.306-.22-.004-.21.06-.29.278-.344.538-.133 1.083-.268 1.588-.488.558-.242.857-.725.924-1.332.02-.17.025-.344.025-.517.001-3.962.002-7.924 0-11.887 0-.253-.012-.507-.036-.759-.101-1.028-.793-1.675-1.84-1.72-.29-.012-.58-.001-.882-.001-.122-.38-.049-.571.324-.685 1.31-.399 2.608-.839 3.916-1.248.277-.087.576-.11.926-.173zm19.494 1.981c-1.093.71-1.774 1.721-2.215 2.913a9.26 9.26 0 0 0-.592 2.863H78.8c-.104-1.448-.327-2.836-.958-4.129-.292-.6-.678-1.137-1.213-1.55-1.428-1.105-3.9-1.135-5.498-.097zM7.725.661c.1.317.054.5-.315.567a7.826 7.826 0 0 0-1.365.36c-1 .376-1.204.89-.821 1.894.631 1.658 1.256 3.32 1.885 4.978.907 2.39 1.816 4.78 2.725 7.17.044.117.095.23.18.436.203-.544.379-1.01.55-1.477 1.27-3.45 2.541-6.899 3.802-10.352.052-.142.037-.332-.007-.483-.076-.264-.224-.509-.295-.774-.275-1.028-1.039-1.463-1.984-1.7-.132-.034-.311-.096-.362-.198-.136-.273.003-.444.324-.444 2.348-.001 4.696-.001 7.045.001.147 0 .332-.06.352.205.018.238-.091.312-.301.367-.577.148-1.162.284-1.717.496-.606.233-.833.65-.649 1.267.27.903.612 1.785.945 2.668 1.273 3.375 2.555 6.746 3.835 10.119.03.08.072.156.14.3.33-.892.636-1.719.94-2.546A21658.708 21658.708 0 0 0 26.326 3.46a2.11 2.11 0 0 0 .061-.198c.254-.992.008-1.45-.974-1.74-.429-.127-.87-.21-1.31-.3-.426-.089-.444-.108-.325-.584h.33c1.864 0 3.73-.002 5.594.004.147.001.36-.099.399.189.037.281-.116.36-.349.4-.157.028-.31.084-.465.128-.781.222-1.26.736-1.541 1.497-.718 1.945-1.463 3.88-2.201 5.818-1.1 2.885-2.204 5.768-3.305 8.653-.3.786-.597 1.573-.89 2.361-.061.168-.1.311-.338.313-.232.002-.284-.134-.35-.301L15.14 5.749c-.009-.021-.025-.04-.062-.099-.05.104-.095.184-.127.27-1.14 2.993-2.278 5.987-3.415 8.981-.61 1.605-1.22 3.21-1.826 4.817-.06.16-.117.28-.33.281-.21 0-.306-.082-.378-.268a1556.82 1556.82 0 0 0-2.339-5.95c-.703-1.778-1.414-3.553-2.119-5.33-.743-1.875-1.513-3.739-2.21-5.63C1.988 1.88 1.288 1.504.416 1.28.29 1.247.125 1.208.061 1.115-.094.889.064.637.34.636h7.148c.078 0 .156.016.236.025M44.86 4.95c.657 1.511.932 3.098.928 5.22-.03 2.064-.607 4.44-2.16 6.501-1.404 1.862-3.254 3.018-5.571 3.277-3.076.343-6.034-.974-7.696-3.763-1.392-2.334-1.71-4.863-1.397-7.51.2-1.69.709-3.281 1.631-4.72C31.891 1.93 33.664.548 36.045.13c3.636-.636 7.186 1.076 8.814 4.82zM34.772 1.873c-1.533.834-2.36 2.243-2.857 3.86-.666 2.17-.619 4.37-.155 6.57.333 1.578.87 3.08 1.883 4.36 1.307 1.652 3.003 2.345 5.075 1.906 1.477-.313 2.508-1.273 3.256-2.553.951-1.626 1.262-3.416 1.282-5.274.008-1.333-.2-2.635-.552-3.913-.374-1.354-.932-2.617-1.84-3.704-1.536-1.838-4.033-2.373-6.092-1.252z" fill="#FCFCFC" fill-rule="evenodd"/>
</svg>
