<?xml version="1.0" encoding="utf-8"?>
<!-- Generator: Adobe Illustrator 27.1.0, SVG Export Plug-In . SVG Version: 6.00 Build 0)  -->
<svg version="1.1" id="Layer_1" xmlns="http://www.w3.org/2000/svg" xmlns:xlink="http://www.w3.org/1999/xlink" x="0px" y="0px"
	 viewBox="0 0 145 145" style="enable-background:new 0 0 145 145;" xml:space="preserve">
<style type="text/css">
	.st0{fill-rule:evenodd;clip-rule:evenodd;fill:#ED6B64;}
	.st1{fill-rule:evenodd;clip-rule:evenodd;fill:#FFFFFF;}
</style>
<g>
	<path class="st0" d="M129,144H16c-8.3,0-15-6.7-15-15V16C1,7.7,7.7,1,16,1h113c8.3,0,15,6.7,15,15v113C144,137.3,137.3,144,129,144
		z"/>
	<path class="st1" d="M27,61.3c0.3-1.6,0.8-3.1,1.3-4.7c1.9-5.8,6.2-16.5,14-23.6c1.7-1.6,3.7-3.1,6.1-4.7c4.1-2.7,8.6-5,13.5-6.8
		c5.9-2.2,12.2-3.3,18.7-3.1c12.8,0.3,25.5,5.5,34.9,14.3c1.6,1.5,3.1,3.1,3.8,5.3l0.9,2.8l-6.2-5.2c-0.1-0.1-0.3-0.2-0.7-0.5l0,0
		l-0.1-0.1c-1.6-1.1-2.3-1.6-2.7-2c-13.9-9.2-29.4-12.3-42.6-8.5c-12.8,3.7-20.8,8-31.3,22.5l-0.2,0.3l0,0c-0.2,0.2-0.4,0.5-0.5,0.8
		c-2.3,3.8-4.2,8-5.7,13.1c-0.3,0.9-0.5,1.9-0.6,3.1c-0.1,0.4-0.2,0.8-0.3,1.2c-0.1,0.4-0.6,0.8-1.1,0.8h0c-0.4,0-0.8-0.2-1-0.5
		c-0.2-0.2-0.3-0.5-0.4-0.9C26.7,63.7,26.7,62.5,27,61.3z M131.4,56.5c-0.3-1-0.5-2-0.9-3.1c-0.6-2-1.6-4.4-3.3-5.3
		c-3.8-2.2-10.5,1.5-13.5,3.7c-0.6,0.4-1.1,0.9-1.6,1.3v0l-0.7,0.5c-8.1,6.6-13.1,16.4-18,25.8l0,0.1v0c-1.1,2.2-2.3,4.4-3.4,6.5
		c-0.4,0.7-0.8,1.5-1.1,2.2l0.2-4.2c0-1.3,0.1-2.6,0.1-3.9c0-0.9,0.1-1.7,0.2-2.6l0-0.2c0.1-1.2,0.3-2.5,0.3-3.8l0-0.2v0
		c0-0.2,0-0.4,0-0.6c0.2-1.6,0.2-3.2,0.1-4.5c0-0.7-0.1-1.5-0.2-2.2c-0.1-0.4-0.2-0.9-0.4-1.4c-0.4-0.9-1.1-1.6-2.1-2l-0.2-0.1l0,0
		c-0.1,0-0.3-0.1-0.4-0.2c-0.5-0.3-1.2-0.3-1.7-0.1c-0.5,0.2-0.9,0.7-1,1.3c-0.1,0.4-0.3,0.8-0.6,1.2l0,0l-6.9,9.8l-0.2,0.2v0
		c-1.1,1.6-2.3,3.2-3.4,4.8c-0.2,0.3-0.5,0.7-0.7,1l1-3l0.1-0.2c0.4-1.2,0.8-2.4,1.1-3.6c0.6-2.1,1.2-4.2,1.7-6.3
		c0.4-1.7,0.9-3.4,1.3-5.1c0.3-1.5,0.3-3.1,0-4.7c-0.2-0.9-0.6-1.7-1.2-2.4l-0.2-0.2c-0.4-0.7-1.1-1.4-2.6-1
		c-0.8,0.2-1.6,0.5-2.4,0.9l-7.8,4l0,0c-0.4,0.2-0.8,0.4-1.2,0.6c-1.9,0.8-3.7,1.6-5.6,2.4c-4.6,1.9-9.5,3.4-15.2,4.5
		c-1.2,0.2-2.4,0.4-3.6,0.6c-1,0.1-2,0.3-3,0.3c-2,0.1-3.9,0.1-5.8-0.1l0,0c-1.4-0.1-2.9-0.3-4.4-0.6c-2.1-0.4-3.9-1.1-5.4-2
		l-0.2-0.2l0,0c-1.4-0.9-2.7-1.7-3.5-3c-0.3-0.5-0.9-0.8-1.5-0.7c-0.7,0.1-1.2,0.5-1.3,1.1C12,62.6,11.9,63,12,63.4
		c0.1,0.7,0.4,1.2,0.8,1.7c0.5,0.7,1.1,1.2,1.6,1.7c2.2,1.9,4.7,3.2,7.4,4c2.9,0.8,5.8,1,8.4,1.1c0.2,0,0.4,0,0.6,0l0,0
		c0.3,0,0.6,0,0.9,0.1l0.2,0c0.7,0,1.4,0,2.2,0c1-0.1,1.9-0.2,2.8-0.2l0.6-0.1c0.7-0.1,1.3-0.1,2-0.2c1.5-0.3,3-0.5,4.5-0.8
		c2.8-0.6,5.2-1.2,7.4-2c2.3-0.8,4.5-1.7,6.7-2.6l0,0l0.8-0.3c2.9-1.2,5.9-2.6,9.1-4.3c0.9-0.4,1.7-0.9,2.6-1.3l-0.8,3.1
		c-1,3.9-2.1,7.9-3.2,11.7l-0.6,2.1c-0.6,2.3-1.1,4.8-1.5,7.4c-0.1,0.6-0.1,1.2-0.2,1.8c-0.1,1.2,0.2,2.1,0.7,2.9
		c0.2,0.3,1.8,1.6,2.1,1.7l0.2,0.1c0.9,0.3,1.6,0.1,2.3-0.7l0,0c0-0.1,0.1-0.1,0.1-0.2c1.2-1,2.3-2.1,3.4-3.6
		c1.3-1.8,2.8-3.8,4.5-6.3c1.5-2.2,3.1-4.5,4.6-6.8l0.2-0.3l0.7-1.1v0c0,0.2,0,0.4-0.1,0.6l-0.1,1.3c-0.1,0.9-0.2,1.8-0.2,2.7
		l-0.1,1l0,0l0,0c-0.1,1-0.2,2.1-0.2,3.1c-0.1,1.9-0.1,3.7-0.1,5.6v0v0.1V87c0,1.5,0,3,0.2,4.5c0.2,1.9,0.6,3.6,1.2,5.2
		c0.2,0.5,0.4,1,0.8,1.3c0.8,1,2.1,1.2,3.2,0.6c0.3-0.2,0.6-0.4,0.9-0.7c0.3-0.4,0.7-0.9,1.1-1.4c1-1.7,1.9-3.4,2.6-4.9l0.3-0.7
		l0-0.1c0.2-0.5,0.5-1.1,0.8-1.6c0.7-1.4,1.5-2.8,2.3-4.2c1.6-2.8,3.1-5.6,4.7-8.4l1.2-2.2c3.8-6.9,7.4-13.3,13.2-18.5
		c2.4-2.1,7-5.2,9.8-4.9c0.8,0.1,1.4,0.4,1.8,1c0.6,0.8,0.8,2.1,1,3.3l0,0c0,0.3,0.1,0.6,0.1,0.8c0.6,2.9,0.9,5.5,0.9,8.2
		c0.1,5-0.5,10.3-1.8,15.8c-3.4,14-11.5,25.7-22.8,32.8c-11.4,7.2-25.3,9.4-39.2,6c-2.8-0.7-5.5-1.6-8-2.7
		c-3.7-1.7-7.3-3.9-10.7-6.7c-9.4-7.9-15.5-18.4-17.3-29.6c-0.1-0.4-0.2-0.7-0.5-1l0,0c-0.2-0.3-0.6-0.5-1-0.5c-0.4,0-0.8,0.2-1,0.6
		c-0.1,0.1-0.2,0.4-0.2,0.6l0,0.2c0,0.4-0.1,0.7-0.1,1.1c0.4,9.9,5,19.4,14.2,29.1c1.3,1.4,2.6,2.7,4,3.9
		c9.6,8.5,21.8,12.9,34.3,12.9c11.2,0,22.5-3.5,32.1-10.5c8.9-6.4,15.6-15.6,18.9-25.8C133.4,78.8,134.1,67.1,131.4,56.5z"/>
</g>
</svg>
