<svg width="24" height="22" viewBox="0 0 24 22" fill="none" xmlns="http://www.w3.org/2000/svg">
<path d="M12.0922 0.000518723C8.73939 -0.0394813 5.79947 2.23796 4.75547 5.42396C3.65107 8.79396 5.35442 11.4566 6.64922 13.4802C7.20562 14.3498 7.70427 15.1287 7.90547 15.8099C8.00787 16.1567 8.31418 16.4005 8.67578 16.4005H9.2C9.2 15.2401 8.48656 14.1249 7.66016 12.8333C6.69416 11.3241 5.6 9.61372 5.6 7.60052C5.6 4.10052 8.42368 1.24772 11.9133 1.20052C14.6637 1.16412 17.0385 2.96678 18.0117 5.53958C19.1245 8.48158 17.6194 10.8337 16.3398 12.8333C15.5134 14.1249 14.8 15.2401 14.8 16.4005H15.3242C15.6858 16.4005 15.9921 16.1563 16.0945 15.8099C16.2961 15.1287 16.7944 14.3506 17.3508 13.481C18.3532 11.9146 19.6 9.96492 19.6 7.60052C19.6 3.44052 16.2402 0.0505187 12.0922 0.000518723ZM2.66172 0.62005L1.92422 1.56692L3.73828 2.98099L4.47578 2.03411L2.66172 0.62005ZM21.3391 0.621612L19.5242 2.03489L20.2617 2.98177L22.0766 1.56771L21.3391 0.621612ZM0 7.20052V8.40052H2V7.20052H0ZM22 7.20052V8.40052H24V7.20052H22ZM9.92109 7.90286L9.77891 7.98333C9.28291 8.26573 9.07262 8.86652 9.27422 9.40052C9.72502 10.5945 10.4 12.9561 10.4 16.4005H11.6C11.6 10.9045 9.98949 8.02326 9.92109 7.90286ZM14.0789 7.90286C14.0105 8.02286 12.4 10.9045 12.4 16.4005H13.6C13.6 12.9557 14.2746 10.5937 14.725 9.40052C14.9266 8.86732 14.7175 8.26769 14.2227 7.98489L14.0789 7.90286ZM20.2617 12.2201L19.5242 13.1669L21.3383 14.581L22.0758 13.6341L20.2617 12.2201ZM3.7375 12.2208L1.92344 13.6349L2.66094 14.581L4.475 13.1677L3.7375 12.2208ZM8.4 17.6005L8.64375 19.3052C8.73775 19.9644 9.23047 20.496 9.88047 20.6404L10.4461 20.7661C10.612 21.4729 11.2427 22.0005 12 22.0005C12.7573 22.0005 13.388 21.4729 13.5539 20.7661L14.1195 20.6404C14.7695 20.496 15.2623 19.9644 15.3563 19.3052L15.6 17.6005H12.4H11.6H8.4Z" fill="white"/>
</svg>
