<?xml version="1.0" standalone="no"?>
<!DOCTYPE svg PUBLIC "-//W3C//DTD SVG 20010904//EN"
 "http://www.w3.org/TR/2001/REC-SVG-20010904/DTD/svg10.dtd">
<svg version="1.0" xmlns="http://www.w3.org/2000/svg"
 width="700.000000pt" height="700.000000pt" viewBox="0 0 700.000000 700.000000"
 preserveAspectRatio="xMidYMid meet">
<metadata>
Created by potrace 1.14, written by Peter Selinger 2001-2017
</metadata>
<g transform="translate(0.000000,700.000000) scale(0.100000,-0.100000)"
fill="#000000" stroke="none">
<path d="M1255 6993 c-138 -12 -350 -75 -485 -143 -386 -196 -644 -533 -742
-971 l-23 -104 0 -2275 0 -2275 23 -104 c128 -568 527 -968 1095 -1093 l102
-23 2275 0 2275 0 102 23 c566 125 970 529 1095 1095 l23 102 0 2275 0 2275
-23 102 c-97 438 -360 782 -747 975 -93 47 -197 84 -325 116 l-105 27 -2250 1
c-1237 0 -2268 -1 -2290 -3z m1335 -2303 l0 -110 -67 0 c-118 -1 -183 -36
-183 -99 -1 -41 531 -1494 542 -1483 4 4 95 251 202 548 l195 542 -68 179
c-38 99 -81 198 -96 221 -36 55 -81 82 -147 88 -106 11 -98 1 -98 119 l0 105
500 0 500 0 0 -110 0 -110 -67 0 c-118 -1 -183 -36 -183 -99 0 -33 528 -1490
540 -1491 7 0 523 1436 528 1471 12 80 -41 118 -160 119 l-68 0 0 110 0 110
377 0 c373 0 377 0 400 -22 20 -19 23 -31 23 -104 0 -92 -2 -94 -73 -94 -60
-1 -121 -32 -156 -80 -38 -52 -45 -70 -502 -1297 l-373 -1003 -85 0 -86 0
-274 735 c-151 404 -277 733 -280 730 -4 -2 -130 -332 -281 -734 l-275 -731
-85 0 -85 0 -394 1053 c-217 578 -410 1088 -428 1132 -55 134 -123 194 -220
195 -73 0 -73 0 -73 116 l0 104 500 0 500 0 0 -110z"/>
</g>
</svg>
