<svg width="120" height="120" viewBox="0 0 120 120" fill="none" xmlns="http://www.w3.org/2000/svg">
<circle cx="60" cy="60" r="60" fill="#E8F2FB"/>
<path d="M71.25 43.125H82.5" stroke="#5582A7" stroke-width="2" stroke-linecap="round" stroke-linejoin="round"/>
<path d="M76.875 37.5V48.75" stroke="#5582A7" stroke-width="2" stroke-linecap="round" stroke-linejoin="round"/>
<path d="M37.2631 80.6228C39.5683 76.6327 42.8829 73.3195 46.874 71.016C50.8651 68.7126 55.3921 67.5 60.0003 67.5C64.6084 67.5 69.1354 68.7128 73.1264 71.0163C77.1175 73.3199 80.4321 76.6331 82.7372 80.6233" stroke="#5582A7" stroke-width="2" stroke-linecap="round" stroke-linejoin="round"/>
<path d="M74.0746 57.6991C73.0719 60.4063 71.309 62.7664 68.9975 64.496C66.686 66.2255 63.9243 67.2509 61.0442 67.449C58.164 67.647 55.288 67.0093 52.7615 65.6124C50.2351 64.2155 48.1656 62.1189 46.8019 59.5744C45.4381 57.0299 44.838 54.1458 45.0736 51.2685C45.3092 48.3912 46.3706 45.6431 48.1302 43.3544C49.8897 41.0657 52.2727 39.3337 54.9928 38.3665C57.7128 37.3993 60.6543 37.2379 63.4638 37.9019" stroke="#5582A7" stroke-width="2" stroke-linecap="round" stroke-linejoin="round"/>
</svg>
