<svg width="27" height="24" viewBox="0 0 27 24" xmlns="http://www.w3.org/2000/svg">
    <g stroke="#323232" stroke-width="1.5" fill="none" fill-rule="evenodd" stroke-linecap="round">
        <g stroke-linejoin="round">
            <path d="M3.996 12c.001-.663.154-1.318.446-1.913h0A9.457 9.457 0 0 1 13 4.997a9.457 9.457 0 0 1 8.558 5.09h0a4.323 4.323 0 0 1 0 3.826h0A9.457 9.457 0 0 1 13 19.003a9.457 9.457 0 0 1-8.558-5.09h0A4.348 4.348 0 0 1 3.996 12z"/>
            <path d="M16.001 12A3.001 3.001 0 1 1 13 8.999"/>
        </g>
        <path d="m1.5 19.5 24-16"/>
    </g>
</svg>
