<svg width="25" height="25" viewBox="0 0 25 25" xmlns="http://www.w3.org/2000/svg">
    <g fill="none" fill-rule="evenodd">
        <path d="M2.996 13c.001-.663.154-1.318.446-1.913h0A9.457 9.457 0 0 1 12 5.997a9.457 9.457 0 0 1 8.558 5.09h0a4.323 4.323 0 0 1 0 3.826h0A9.457 9.457 0 0 1 12 20.003a9.457 9.457 0 0 1-8.558-5.09h0A4.348 4.348 0 0 1 2.996 13z" stroke="#323232" stroke-width="1.5" stroke-linecap="round" stroke-linejoin="round"/>
        <path d="M15.001 13A3.001 3.001 0 1 1 12 9.999" stroke="#323232" stroke-width="1.5" stroke-linecap="round" stroke-linejoin="round"/>
        <path d="M-.005.995h24.01v24.01H-.005z"/>
    </g>
</svg>
