<svg width="25" height="24" viewBox="0 0 25 24" xmlns="http://www.w3.org/2000/svg">
    <g transform="translate(.25)" fill="none" fill-rule="evenodd">
        <path stroke="#323232" stroke-width="1.5" stroke-linecap="round" stroke-linejoin="round" d="m7.5 12.995.005.005-.005.005L7.495 13l.005-.005M10.5 12.995l.005.005-.005.005-.005-.005.005-.005M13.5 12.995l.005.005-.005.005-.005-.005.005-.005M16.5 12.995l.005.005-.005.005-.005-.005.005-.005M7.5 15.995l.005.005-.005.005L7.495 16l.005-.005M10.5 15.995l.005.005-.005.005-.005-.005.005-.005M13.5 15.995l.005.005-.005.005-.005-.005.005-.005"/>
        <rect stroke="#323232" stroke-width="1.5" stroke-linecap="round" stroke-linejoin="round" x="3" y="3" width="18" height="18" rx="5"/>
        <path stroke="#323232" stroke-width="1.5" stroke-linecap="round" stroke-linejoin="round" d="M3 9h18"/>
        <path d="M24 24H0V0h24z"/>
    </g>
</svg>
