<svg width="25" height="24" viewBox="0 0 25 24" xmlns="http://www.w3.org/2000/svg">
    <g fill="none" fill-rule="evenodd">
        <path d="M.25 24V0h24v24"/>
        <path d="M14.219 6.429v-1.46C14.219 3.936 13.338 3 12.25 3a1.968 1.968 0 0 0-1.969 1.969v1.459M14.565 11h-4.63a1.113 1.113 0 0 1-1.113-1.113V7.542c0-.615.498-1.113 1.113-1.113h4.631c.615 0 1.113.498 1.113 1.113v2.345c0 .615-.499 1.113-1.114 1.113h0zM18.75 21h-13a3.5 3.5 0 0 1-3.5-3.5h0a3.5 3.5 0 0 1 3.5-3.5h13a3.5 3.5 0 0 1 3.5 3.5h0a3.5 3.5 0 0 1-3.5 3.5z" stroke="#323232" stroke-width="1.5" stroke-linecap="round" stroke-linejoin="round"/>
        <path d="M18.494 17.499a.244.244 0 1 0-.489.001.244.244 0 0 0 .489-.001M14.494 17.499a.244.244 0 1 0-.489.001.244.244 0 0 0 .489-.001M10.494 17.499a.244.244 0 1 0-.489.001.244.244 0 0 0 .489-.001M6.494 17.499a.244.244 0 1 0-.489.001.244.244 0 0 0 .489-.001" stroke="#323232" stroke-width="1.625" stroke-linecap="round" stroke-linejoin="round"/>
    </g>
</svg>
